<?xml version="1.0" encoding="UTF-8" standalone="no"?>
<svg
   xmlns:dc="http://purl.org/dc/elements/1.1/"
   xmlns:cc="http://creativecommons.org/ns#"
   xmlns:rdf="http://www.w3.org/1999/02/22-rdf-syntax-ns#"
   xmlns:svg="http://www.w3.org/2000/svg"
   xmlns="http://www.w3.org/2000/svg"
   xmlns:sodipodi="http://sodipodi.sourceforge.net/DTD/sodipodi-0.dtd"
   xmlns:inkscape="http://www.inkscape.org/namespaces/inkscape"
   height="187"
   width="936.92"
   version="1.1"
   id="svg2"
   inkscape:version="0.48.5 r10040"
   sodipodi:docname="logonome2.svg">
  <defs
     id="defs20" />
  <sodipodi:namedview
     pagecolor="#ffffff"
     bordercolor="#666666"
     borderopacity="1"
     objecttolerance="10"
     gridtolerance="10"
     guidetolerance="10"
     inkscape:pageopacity="0"
     inkscape:pageshadow="2"
     inkscape:window-width="1366"
     inkscape:window-height="715"
     id="namedview18"
     showgrid="false"
     inkscape:zoom="0.63542509"
     inkscape:cx="257.32513"
     inkscape:cy="15.593498"
     inkscape:window-x="0"
     inkscape:window-y="0"
     inkscape:window-maximized="1"
     inkscape:current-layer="svg2" />
  <metadata
     id="metadata4">
    <rdf:RDF>
      <cc:Work
         rdf:about="">
        <dc:format>image/svg+xml</dc:format>
        <dc:type
           rdf:resource="http://purl.org/dc/dcmitype/StillImage" />
        <dc:title></dc:title>
      </cc:Work>
    </rdf:RDF>
  </metadata>
  <path
     d="m825.46,159.24c-7.5026-1.0597-14.164-4.7502-17.529-9.7116-1.2536-1.8483-2.6283-4.905-2.6122-5.8084,0.008-0.44467,0.11767-0.40906,0.67517,0.21904,3.2459,3.6569,8.5268,5.7274,14.747,5.7816,2.5409,0.0222,3.8265-0.12072,5.6116-0.62372,11.17-3.1474,18.943-13.157,20.896-26.908,0.40849-2.8768,0.39695-8.1608-0.0183-8.4178-0.18518-0.11459-1.4497,0.92702-2.8992,2.3882-2.8166,2.8392-4.8057,4.287-7.6473,5.5666-8.785,3.9559-20.53,1.9307-27.897-4.8105-3.3747-3.088-5.8368-7.1242-7.2529-11.89-1.0648-3.5834-1.3379-10.312-0.58171-14.329,1.9707-10.47,9.3578-18.199,19.833-20.752,2.7935-0.68078,9.1075-0.67994,11.904,0.0015,4.6105,1.1234,7.974,3.0256,11.917,6.7399,2.72,2.5618,2.9394,2.537,2.947-0.3337,0.0147-5.5637,6.0885-8.4452,10.364-4.9168,2.3292,1.9223,2.2115,0.5101,2.2186,26.604,0.004,13.134-0.12387,24.686-0.29289,26.55-0.64647,7.1292-2.1549,14.687-3.739,18.734-3.9041,9.9735-12.738,15.547-25.438,16.05-1.8334,0.0725-4.1763,0.0128-5.2063-0.13265zm10.604-47.239c5.4573-1.7352,9.6568-6.0268,11.059-11.302,0.23548-0.88581,0.42974-2.7635,0.43168-4.1725,0.007-4.646-1.2751-7.8865-4.4011-11.128-3.1396-3.256-7.0226-4.9906-11.802-5.2723-8.4616-0.49858-15.54,4.2828-17.477,11.806-0.60251,2.3397-0.61018,6.6598-0.0159,8.9442,1.579,6.0696,6.7035,10.696,13.129,11.854,2.4256,0.43695,6.4179,0.11627,9.0766-0.72907zm-17.336,35.972c-4.8094-0.74976-8.6827-2.5055-10.765-4.8796-0.52718-0.60116-1.4022-2.0545-1.9445-3.2297-0.97232-2.107-1.0112-2.1459-2.8-2.7989-4.056-1.4807-3.4782-3.3206,2.7712-8.8254,3.3393-2.9414,5.0939-4.1127,6.1244-4.0885,0.95994,0.0225,2.3797,0.98514,5.9832,4.0568,6.0867,5.1884,6.9267,7.5478,3.0336,8.5214-2.1818,0.54567-2.1892,0.55706-2.1784,3.3459,0.0132,3.3689,0.56212,5.1859,2.0029,6.6284,0.99677,0.99799,1.2755,1.8018,0.59148,1.7058-0.11389-0.016-1.3826-0.2123-2.8192-0.43628zm-504.66-16.96c-2.9973-0.4142-7.5615-2.0644-10.407-3.7627-4.6856-2.7966-9.1331-7.9915-11.326-13.229-1.6032-3.829-2.139-6.4732-2.3131-11.415-0.24164-6.8578,0.66432-11.265,3.4189-16.63,3.6652-7.1396,9.3068-11.878,16.736-14.057,2.731-0.80102,8.0547-1.0896,11.082-0.60076,12.14,1.9608,20.557,11.737,22.012,25.567,0.44665,4.2455,0.42832,4.3875-0.7137,5.5309l-1.0188,1.02h-22.802-22.802v1.302c0,1.9513,1.0597,5.7466,2.3588,8.448,2.8202,5.8645,6.9953,9.616,13.072,11.746,2.2394,0.78489,2.7125,0.84025,7.1913,0.8415,4.6341,0.001,4.8877-0.0312,7.596-0.97249,3.4454-1.1976,6.0635-2.711,9.1508-5.2901,1.3003-1.0862,2.5812-1.9905,2.8465-2.0095,1.8923-0.13553,3.0293,0.80541,3.0293,2.507,0,1.0407-0.20397,1.3638-1.8727,2.9672-3.902,3.749-9.1597,6.5864-14.057,7.5861-2.935,0.59914-8.4884,0.8231-11.181,0.45094zm23.216-33.988c0-1.8046-1.2352-6.521-2.356-8.9958-3.3307-7.3546-9.1136-11.377-16.974-11.807-9.4331-0.5162-17.508,5.4526-20.792,15.37-0.52456,1.5838-1.0349,3.7494-1.134,4.8124l-0.18025,1.9327h20.718,20.718v-1.3115zm33.559,34.005c-6.1085-0.85239-11.956-3.8184-16.503-8.3708-16.167-16.187-9.1778-43.892,12.768-50.611,2.4806-0.75947,3.0754-0.82213,7.7798-0.81952,6.0798,0.0034,8.2166,0.46649,12.884,2.7924,4.35,2.1677,8.9116,5.7537,9.3026,7.3132,0.52948,2.1122-1.2216,3.9631-3.369,3.561-0.36215-0.0678-1.5083-0.86195-2.5469-1.7648-4.3719-3.8002-8.213-5.7626-12.854-6.5672-12.053-2.0897-23.537,6.1734-26.242,18.882-0.67902,3.1903-0.60391,8.459,0.16651,11.681,1.7652,7.382,6.4023,13.346,12.761,16.412,3.6178,1.7446,6.3827,2.3991,10.107,2.3921,6.2228-0.0116,11.105-2.0337,16.823-6.9673,2.6547-2.2906,3.3081-2.4526,4.737-1.1744,1.4896,1.3325,1.3302,2.3903-0.66946,4.4427-3.7689,3.8685-8.7953,6.8393-13.663,8.0757-3.2683,0.83007-8.3963,1.1526-11.481,0.72218zm72.961,0.12518c-6.8405-1.0148-12.022-3.4636-16.689-7.8874-4.3087-4.084-7.0899-8.7876-8.5309-14.428-3.9249-15.362,4.6535-31.456,19.393-36.384,3.4654-1.1586,6.401-1.5291,10.559-1.3328,6.1705,0.29137,11.279,2.1344,16.243,5.8597,3.582,2.6883,4.4809,3.7242,4.4809,5.1634,0,1.6024-1.1081,2.7504-2.6549,2.7504-1.2056,0-1.127,0.04739-4.6887-2.8292-5.6769-4.5849-11.52-6.4517-17.707-5.6573-9.6352,1.2372-17.177,8.0556-19.772,17.876-0.7697,2.9124-0.92642,9.4474-0.29499,12.3,1.8976,8.5726,7.9017,15.477,15.859,18.236,3.6472,1.2649,8.6351,1.4868,12.352,0.5497,4.4269-1.116,7.6643-2.9492,12.512-7.0846,1.8814-1.6051,2.7496-1.7086,3.982-0.47468,1.3304,1.332,1.194,2.4082-0.54063,4.265-3.5189,3.7666-9.3027,7.1726-14.178,8.3491-2.4552,0.59253-8.4077,1.0122-10.324,0.72781zm63.548-0.13007c-4.6643-0.73577-8.7539-2.394-12.01-4.8698-4.4243-3.3637-6.7252-8.5739-6.3233-14.319,0.20877-2.9846,0.70217-4.7568,2.0064-7.2067,2.4986-4.6935,7.7767-8.0892,14.961-9.6256,5.8311-1.2469,16.568-0.82728,23.908,0.93441,1.3701,0.32883,2.6355,0.59787,2.8121,0.59787,0.21927,0,0.27228-1.1653,0.16719-3.675-0.12282-2.9328-0.30784-4.0918-0.91622-5.7388-1.8559-5.0242-5.321-8.0757-10.996-9.6836-1.5744-0.44606-2.9524-0.54716-7.1913-0.52759-5.9521,0.02748-8.4036,0.51468-14.097,2.8015-2.8314,1.1373-3.0854,1.1885-4.0001,0.80587-1.2065-0.50471-1.9064-1.9649-1.4985-3.1262,0.37471-1.0668,1.7265-1.9205,4.8431-3.0587,8.4894-3.1004,17.267-3.7399,24.352-1.7743,7.3882,2.0498,12.392,7.087,14.43,14.527,0.63823,2.3294,0.66094,2.9558,0.77141,21.3,0.0803,13.323,0.0153,19.231-0.21984,20.023-0.61275,2.0626-3.0053,2.5757-4.5137,0.96813-0.6156-0.65608-0.6968-1.0963-0.82717-4.4844-0.0795-2.0663-0.17742-3.7569-0.2176-3.7569-0.0402,0-1.1344,1.0521-2.4315,2.3379-3.7404,3.7078-7.2018,5.6703-12.307,6.9774-2.6789,0.68598-8.1349,0.9783-10.702,0.57337zm11.062-5.8312c7.6525-2.1065,13.444-7.7696,14.52-14.198,0.18503-1.1053,0.29718-3.6261,0.24921-5.6018l-0.0872-3.5922-2.698-0.64257c-6.6268-1.5783-15.967-2.3135-20.933-1.6477-9.781,1.3116-14.961,6.3397-14.513,14.087,0.32671,5.6506,4.3741,9.9299,11.12,11.758,1.7935,0.4859,2.8564,0.56258,6.349,0.45806,2.595-0.0777,4.8806-0.31429,5.9927-0.62043zm62.924,5.543c-18.285-1.9504-32.139-15.092-35.089-33.285-0.54327-3.3506-0.53141-10.552,0.0231-13.974,2.5183-15.545,13.144-27.674,28.024-31.988,3.4706-1.0062,7.4564-1.4969,12.135-1.4938,9.6941,0.0064,17.048,2.2023,24.508,7.3179,3.6309,2.4898,4.2568,3.4716,4.2568,6.6771,0,2.2049-0.0851,2.5704-0.85789,3.687-1.6052,2.3191-5.2351,3.419-7.7663,2.3533-0.53032-0.22327-2.0429-1.1831-3.3613-2.1329-3.0538-2.2001-6.3172-3.8432-9.6537-4.8606-2.348-0.71594-3.1314-0.80455-7.2757-0.82288-3.9886-0.01764-4.9828,0.07674-7.0414,0.66844-11.34,3.2595-18.856,13.151-19.528,25.704-0.85831,16.015,9.763,29.001,24.564,30.032,3.166,0.22065,7.4854-0.25578,10.396-1.1466,2.7449-0.84025,6.6767-2.9374,9.1389-4.8747,3.5443-2.7886,4.9779-3.3403,7.354-2.8301,3.7662,0.8087,5.9239,5.2505,4.1969,8.6399-1.6442,3.2268-9.1538,8.2052-15.596,10.339-5.3403,1.769-12.875,2.5829-18.428,1.9906zm62.175-0.0208c-10.506-1.3012-19.418-7.4268-23.974-16.48-5.9836-11.888-3.6738-26.419,5.6776-35.718,6.0946-6.0605,13.41-8.982,22.491-8.982,9.0732,0,16.482,2.9567,22.495,8.9772,6.4483,6.4561,9.5951,15.424,8.6496,24.65-0.54051,5.2735-2.1002,9.6828-4.9327,13.945-5.568,8.3784-14.415,13.237-25.014,13.738-1.7304,0.0817-4.1572,0.0233-5.3929-0.1297zm7.9358-11.52c7.1061-1.3613,12.462-6.8226,14.102-14.381,0.73171-3.3708,0.48748-7.8963-0.60044-11.126-3.2799-9.7377-12.515-14.771-22.487-12.256-2.8441,0.7173-5.1777,2.1172-7.656,4.5928-3.7877,3.7836-5.4747,8.1393-5.4648,14.11,0.006,3.6656,0.53586,6.0127,2.0992,9.3,1.5016,3.1576,5.0961,6.7629,8.2263,8.2512,3.9247,1.8661,7.5153,2.326,11.78,1.509zm240.55,11.528c-7.823-0.97674-14.422-4.2429-19.358-9.5815-3.3251-3.5958-5.5116-7.5056-6.9663-12.457-1.1287-3.8416-1.3527-10.427-0.49494-14.55,2.4285-11.671,10.494-20.239,22.239-23.624,3.5034-1.0097,10.877-1.2824,14.78-0.54656,12.023,2.2666,21.004,10.565,24.231,22.391,0.60662,2.2227,0.68788,3.1844,0.67011,7.9295-0.0186,4.9643-0.0854,5.6178-0.82816,8.1-2.799,9.3539-9.2521,16.56-18.044,20.148-4.6578,1.9013-11.33,2.8016-16.229,2.1899zm9.9748-12.111c4.4078-1.4034,8.167-4.7095,10.274-9.0355,1.5178-3.1167,1.96-5.2616,1.9465-9.4417-0.0105-3.2174-0.12381-4.0909-0.79859-6.15-3.6784-11.225-15.549-16.384-25.892-11.253-4.4147,2.1902-7.8518,6.5448-9.237,11.703-0.7543,2.8087-0.88321,6.736-0.31534,9.6076,2.2793,11.527,13.054,18.062,24.022,14.57zm-675.25,11.491c-0.412-0.16185-0.98205-0.59204-1.2668-0.95598-0.48421-0.61889-0.51813-3.1135-0.52436-38.56l-0.007-37.898,0.89246-0.89355,0.89247-0.89355,18.659,0.11809c20.017,0.12669,19.727,0.10605,24.801,1.7631,9.9821,3.2596,15.892,10.994,15.876,20.775-0.007,3.9425-0.59462,6.6384-2.1319,9.777-1.0073,2.0565-1.7476,3.0435-3.8258,5.1-1.4172,1.4025-3.3621,3.0113-4.3218,3.5751-2.26,1.3275-6.5839,2.9467-9.6094,3.5983-1.3154,0.28333-2.4423,0.66727-2.5042,0.85321s4.8865,6.823,10.996,14.749c6.1099,7.926,11.263,14.749,11.45,15.161,0.51279,1.1268-0.0193,2.5683-1.2567,3.4045-1.279,0.8643-2.4886,0.70641-3.6251-0.4732-0.43351-0.44995-5.9471-7.5681-12.252-15.818-6.3054-8.25-11.738-15.304-12.073-15.675l-0.6092-0.675h-12.473c-9.3014,0-12.564,0.09153-12.832,0.36-0.27029,0.27061-0.35957,4.1674-0.35957,15.693,0,15.153-0.007,15.341-0.62804,16.008-0.57303,0.61582-1.8067,1.2661-2.3129,1.2192-0.11287-0.0105-0.54231-0.15144-0.95431-0.3133zm37.322-38.936c10.241-2.1162,16.116-8.4703,16.116-17.431,0-7.4357-3.9187-12.895-11.14-15.519-4.513-1.6401-4.7371-1.6585-21.891-1.7955-13.036-0.10409-16.046-0.05437-16.251,0.26842-0.2951,0.46597-0.3541,34.552-0.0603,34.846,0.10987,0.11,7.0202,0.19823,15.356,0.19606,13.626-0.0035,15.431-0.06056,17.871-0.56476zm141.89,38.85c-1.5626-0.86712-1.5092,0.15433-1.5205-29.079l-0.0106-27.248,0.87586-0.87692c0.93586-0.937,2.2455-1.1522,3.3641-0.55278,1.4666,0.78586,1.4531,0.51703,1.4531,28.946,0,28.996,0.052,28.1-1.6765,28.888-0.95937,0.43765-1.5932,0.41799-2.4854-0.0771zm72.286,0.13253c-0.35317-0.14894-0.85881-0.58053-1.1236-0.95909-0.4364-0.6238-0.48151-4.4229-0.48151-40.545v-39.856l0.9128-0.91392c0.7887-0.78965,1.0637-0.88987,2.0226-0.73705,0.66206,0.10552,1.3817,0.49025,1.7839,0.95372l0.67418,0.77686v39.867,39.867l-0.67418,0.76705c-0.74695,0.84985-2.1284,1.196-3.1141,0.78029zm209.34-0.39061c-1.5291-0.51375-3.4133-2.5348-3.8534-4.1332-0.28183-1.0237-0.34838-7.22-0.28189-26.24,0.0958-27.403-0.0313-25.589,1.932-27.573,2.6628-2.6908,7.5787-2.2283,9.7894,0.92104,0.66939,0.9536,0.91794,1.7569,1.1551,3.7336,0.16621,1.3852,0.36388,2.582,0.43926,2.6596,0.0754,0.07756,1.2128-1.0286,2.5276-2.4582,2.7569-2.9977,5.6958-5.0748,8.7611-6.1921,1.9694-0.71785,2.5406-0.78403,6.7946-0.78723,4.1193-0.0031,4.8967,0.07925,6.8766,0.72839,3.9176,1.2845,7.841,4.3806,9.8119,7.7431,0.41104,0.70125,0.92348,1.275,1.1387,1.275,0.21523,0,1.0817-0.79791,1.9256-1.7731,4.6813-5.4102,10.749-8.1269,18.151-8.1269,6.5518,0,10.745,1.549,14.548,5.3742,2.6092,2.6245,4.0573,5.2604,5.1233,9.3258,0.65111,2.4831,0.67152,3.0437,0.7778,21.357,0.0789,13.598,0.0132,19.164-0.23723,20.095-0.65973,2.453-3.4062,4.445-6.1286,4.445-2.1981,0-4.8483-1.5279-5.9335-3.4208-0.26066-0.45469-0.40865-5.2211-0.54097-17.426-0.15374-14.178-0.25876-17.094-0.67292-18.684-1.6001-6.1443-5.6422-9.3656-11.752-9.3656-5.1522,0-9.0753,2.3455-11.29,6.75-1.5427,3.0677-1.5264,2.8696-1.7038,20.724l-0.16711,16.824-0.90038,1.4759c-1.1244,1.8432-3.4065,3.1259-5.5613,3.1259-2.1064,0-4.3781-1.2921-5.5192-3.1392l-0.90352-1.4626-0.16684-17.124c-0.17939-18.415-0.1449-18.019-1.852-21.25-1.913-3.6201-5.1395-5.6037-9.5219-5.8539-5.281-0.30148-9.5985,2.0109-11.871,6.3582-1.8031,3.4488-1.7185,2.5274-1.9016,20.721-0.18478,18.364-0.14113,17.929-1.98,19.753-0.47286,0.46908-1.2552,1.0576-1.7386,1.3079-1.1442,0.59239-3.9459,0.75846-5.2731,0.31256zm97.828,0.0329c-1.4606-0.54071-2.8061-1.7049-3.5235-3.0486l-0.67142-1.2576-0.0816-24.843c-0.0583-17.733,0.015-25.203,0.25631-26.099,0.50557-1.8798,2.6979-3.9427,4.6195-4.3467,3.312-0.69634,6.2135,0.72274,7.5515,3.6932,0.50156,1.1135,0.54452,2.8454,0.62381,25.148,0.0556,15.63-0.0228,24.537-0.22566,25.635-0.59151,3.2035-2.7287,5.1219-5.9467,5.3378-0.93681,0.0628-2.1078-0.0355-2.6022-0.21851zm-0.68263-68.797c-2.9333-0.91708-4.566-3.1859-4.5544-6.3288,0.012-3.2361,1.6004-5.3801,4.6719-6.3056,4.5142-1.3602,9.1532,0.8064,9.9739,4.6582,0.25936,1.2173,0.26275,2.0436,0.0132,3.2466-0.81372,3.9244-5.5657,6.1486-10.105,4.7296zm-379.89-4.176c-0.96062-0.96178-1.0187-1.1373-1.0176-3.075,0.002-2.523,0.65044-3.7777,2.223-4.2973,1.323-0.43714,2.7576-0.03519,3.7859,1.0607,0.54679,0.58273,0.73164,1.1752,0.82508,2.6444,0.19422,3.0539-1.0964,4.6872-3.704,4.6872-0.84416,0-1.3259-0.23264-2.1123-1.02z"
     style="fill:#70b08e;"
     id="path6"
     inkscape:export-filename="/home/dani/Insync/COMIGO SA/ReciclaComigo/Marketing/SiteReciclaComigo/setas.png"
     inkscape:export-xdpi="90"
     inkscape:export-ydpi="90" />
  <a
     id="comigo"
     inkscape:export-filename="/home/dani/Insync/COMIGO SA/ReciclaComigo/Marketing/SiteReciclaComigo/setas.png"
     inkscape:export-xdpi="90"
     inkscape:export-ydpi="90">
    <path
       id="path8"
       style="fill:#07763c;"
       d="m818.79,147.33c-2.0806-0.35017-5.4109-1.4262-6.9407-2.2426-2.5367-1.3537-4.1844-3.1359-5.3288-5.764-0.97067-2.2289-0.99533-2.2553-2.5822-2.755-3.8829-1.2228-3.3782-2.6578,2.8223-8.023,3.6694-3.1752,4.1707-3.5077,5.2877-3.5077,1.1016,0,1.5702,0.30989,5.2731,3.4869,6.283,5.3908,6.7785,6.927,2.5204,7.814-1.781,0.37102-2.1111,1.2647-1.685,4.5617,0.44433,3.4382,0.80494,4.639,1.7202,5.728,0.8219,0.97794,0.76677,1.0135-1.0869,0.70154zm-506.53-17.37c-4.5121-0.99178-8.9355-3.3633-12.498-6.7005-6.5142-6.102-9.6006-14.171-9.1314-23.874,0.89634-18.534,16.349-31.118,32.982-26.859,2.5288,0.64755,5.91,2.2414,7.9735,3.7586,1.7088,1.2564,4.6877,4.3727,5.9481,6.2222,2.863,4.2016,4.7857,10.168,5.0521,15.678,0.15157,3.1347,0.12615,3.3301-0.50732,3.9-0.65155,0.58621-1.1983,0.60345-23.782,0.75l-23.116,0.15,0.06,1.7446c0.0753,2.1916,1.0454,5.982,2.162,8.4475,2.1589,4.767,6.1455,8.9331,10.636,11.115,3.6847,1.79,6.1274,2.3412,10.364,2.3385,6.9176-0.004,12.361-2.1179,17.67-6.861,1.9847-1.7731,3.1104-2.078,4.0074-1.0856,0.95977,1.0618,0.6264,1.9604-1.4482,3.9034-3.6495,3.4181-7.8047,5.7787-12.289,6.9814-3.212,0.86151-10.963,1.0765-14.083,0.3907zm25.37-31.051c0.54463-0.29183,0.58908-0.51091,0.41078-2.025-0.62412-5.3001-2.95-11.164-5.7602-14.522-3.807-4.5496-8.8837-6.8253-15.226-6.8253-6.0211,0-10.307,1.7696-14.532,6-3.8797,3.8844-6.0798,8.213-7.0976,13.964-0.49945,2.8222-0.49794,2.9176,0.053,3.3209,0.46995,0.34406,4.079,0.41523,21.055,0.41523,14.222,0,20.674-0.10007,21.098-0.32723zm31.298,31.036c-10.685-2.2941-18.778-10.298-21.95-21.709-0.83667-3.0093-0.75989-11.281,0.13505-14.55,0.80697-2.9474,2.9411-7.4521,4.6821-9.8833,1.6989-2.3722,5.5449-6.0852,7.7904-7.5208,7.2296-4.6222,15.862-5.7966,23.919-3.254,4.1558,1.3114,8.4116,3.8428,11.507,6.8444,1.7473,1.6944,1.9287,2.3593,0.97491,3.5732-1.0116,1.2877-2.1332,1.0754-4.2897-0.81211-3.7164-3.2527-6.7003-4.996-10.681-6.2401-2.9291-0.91549-9.2226-0.99631-12.275-0.15764-14.053,3.8619-21.533,19.765-16.19,34.423,4.4889,12.315,17.849,18.956,29.886,14.857,3.7354-1.272,6.7993-3.1405,10.18-6.2079,1.0739-0.97438,2.123-1.7716,2.3314-1.7716,0.20836,0,0.73411,0.2798,1.1683,0.62177,1.3368,1.0528,1.0785,2.0457-1.0441,4.0132-4.7942,4.444-9.1103,6.7604-14.598,7.8346-2.8005,0.54821-8.8594,0.51627-11.547-0.0609zm72.18-0.007c-8.5288-1.8296-15.584-7.3644-19.631-15.401-6.6798-13.264-2.3758-29.712,9.9605-38.065,8.7668-5.9358,20.805-6.3301,29.796-0.97584,2.6147,1.5571,6.5564,4.6337,7.0002,5.4638,0.51572,0.96481,0.33422,2.3076-0.37956,2.8082-1.2012,0.84235-2.0986,0.57814-4.1506-1.222-6.6986-5.8764-13.727-8.0405-21.363-6.5777-4.6873,0.89792-8.2144,2.8145-11.901,6.4667-5.0023,4.9558-7.4639,11.083-7.4639,18.578,0,11.88,6.9632,21.554,17.84,24.785,2.198,0.65303,3.3112,0.80134,6.1314,0.81685,6.7442,0.0371,12.004-2.1123,17.768-7.2609,1.1203-1.0007,2.2388-1.8194,2.4856-1.8194,0.68507,0,1.9197,1.387,1.9197,2.1566,0,0.92271-3.2882,3.9908-6.7141,6.2647-2.9982,1.99-6.1096,3.2969-9.5285,4.0022-2.9096,0.60026-8.9217,0.58934-11.769-0.0214zm64.417,0.0522c-7.9395-1.8547-13.272-6.1222-15.161-12.133-0.85323-2.7152-0.85141-7.2032,0.004-9.9433,1.5915-5.0978,5.9128-9.1519,11.945-11.206,3.439-1.1711,7.182-1.6724,12.487-1.6724,5.4904,0,8.1952,0.27163,13.975,1.4034,2.2398,0.43861,4.3159,0.70388,4.6136,0.5895,0.49321-0.18948,0.52497-0.50729,0.35765-3.5754-0.38087-6.9835-2.5734-11.346-7.2222-14.37-6.2261-4.0499-17.69-4.0887-26.986-0.09121-2.8444,1.2232-3.5823,1.2403-4.4272,0.10291-0.52289-0.70393-0.54261-0.88363-0.17988-1.6397,0.70939-1.4786,7.2977-3.8694,13.284-4.8203,4.51-0.71648,11.411-0.42961,14.932,0.62072,6.049,1.8044,9.965,4.9297,12.442,9.9298,2.0169,4.0714,1.9583,3.354,2.0705,25.313,0.094,18.386,0.0628,19.956-0.40625,20.475-0.63298,0.7003-2.2917,0.73952-2.8505,0.0674-0.28756-0.3459-0.45628-1.7668-0.56104-4.725-0.13966-3.9435-0.19044-4.2361-0.74909-4.3154-0.41826-0.0594-0.96126,0.37857-1.7978,1.4499-2.6357,3.3754-7.8313,6.7504-12.49,8.1135-2.8347,0.82933-10.499,1.0752-13.278,0.42601zm9.2887-3.479c3.1019-0.37147,7.3664-1.7026,9.6554-3.0138,3.9967-2.2894,7.2109-5.9856,8.5308-9.8098,0.61853-1.7922,0.6909-2.5494,0.6909-7.2312v-5.2294l-1.4982-0.40075c-7.5227-2.0123-19.536-2.7945-25.129-1.6362-7.3283,1.5175-11.847,5.5633-12.758,11.422-1.2511,8.0463,4.4067,14.501,13.928,15.89,2.5491,0.37183,3.5397,0.37319,6.5803,0.009zm-288.68,2.2342c-0.62074-0.7901-0.62102-0.80744-0.62102-38.25,0-36.899,0.009-37.468,0.59165-38.052,0.32541-0.3258,0.91252-0.673,1.3047-0.77155,0.39217-0.09855,8.5869-0.124,18.211-0.05656,16.756,0.11743,17.624,0.15093,20.483,0.79073,5.6117,1.256,10.287,3.6088,13.426,6.756,8.7347,8.7585,7.6038,23.874-2.3129,30.916-3.5095,2.4922-7.0822,3.9898-11.786,4.9406-2.2341,0.45155-2.6251,0.62025-2.7065,1.1679-0.0684,0.46025,3.0201,4.6821,10.994,15.028,6.099,7.9135,11.32,14.741,11.603,15.173,0.47775,0.73002,0.47959,0.85678,0.0263,1.8086-0.51778,1.0871-1.4913,1.5329-2.69,1.2316-0.46595-0.11709-4.7245-5.4404-13.228-16.536l-12.541-16.363-13.364,0.07806-13.364,0.07806-0.14982,15.794c-0.14223,14.994-0.17872,15.826-0.72062,16.425-0.83345,0.92177-2.3644,0.84449-3.1529-0.15917zm35.036-36.407c10.561-1.2127,17.629-6.556,19.335-14.617,1.6645-7.8647-1.579-15.318-8.1721-18.778-5.7829-3.0351-7.6256-3.2518-26.744-3.1446l-15.431,0.08655-0.0773,17.966c-0.056,13.02,0.016,18.079,0.26142,18.375,0.27701,0.33418,2.8835,0.40816,14.31,0.40614,7.6842-0.0015,15.117-0.13407,16.518-0.29493zm144.55,36.566c-0.55251-0.61129-0.57081-1.5063-0.57081-27.927v-27.295l0.70738-0.57348c0.90906-0.73698,1.5669-0.72451,2.5482,0.0483l0.7895,0.62177v27.382c0,26.146-0.0247,27.404-0.54796,27.878-0.76932,0.69708-2.2354,0.62943-2.9263-0.13502zm72.091,0.0315c-0.59321-0.59393-0.59927-1-0.59927-40.133,0-43.936-0.14756-40.867,1.9646-40.867,0.63222,0,1.2638,0.23234,1.631,0.6,0.59321,0.59393,0.59927,1,0.59927,40.133,0,43.936,0.14755,40.867-1.9646,40.867-0.63222,0-1.2638-0.23233-1.631-0.6zm-72.42-72.393c-0.7058-0.60784-0.84154-0.98636-0.94671-2.64-0.11136-1.751-0.0478-2.0197,0.68405-2.8904,0.65733-0.78214,1.0265-0.96001,1.9923-0.96001,1.5026,0,2.6372,1.0342,2.7,2.4614,0.10427,2.3666-0.0727,3.0854-0.96349,3.9136-1.1076,1.0298-2.3562,1.0713-3.4662,0.11542z" />
  </a>
  <a
     id="globo"
     inkscape:export-filename="/home/dani/Insync/COMIGO SA/ReciclaComigo/Marketing/SiteReciclaComigo/setas.png"
     inkscape:export-xdpi="90"
     inkscape:export-ydpi="90">
    <path
       inkscape:connector-curvature="0"
       id="path10"
       d="m 179.9127,103.8063 a 66.470002,68.945078 0 0 1 -132.940003,0 66.470002,68.945078 0 1 1 132.940003,0 z"
       style="fill:#9cc554" />
  </a>
  <path
     d="m 58.465,142.87 c -6.5333,-9.0406 -11.547,-23.115 -12.637,-34.24 -0.515391,-4.83441 -0.453481,-4.99858 1.361501,-18.282655 8.360261,-2.687457 17.232867,-9.914712 19.438083,-12.294559 1.613651,1.1432 4.198487,5.244793 7.31859,6.974625 4.010121,2.223272 8.632406,2.251545 10.334826,5.276589 2.4975,6.7247 10.901,-1.0414 8.6684,8.4909 -8.2408,7.0035 -1.5114,19.036 5.3322,24.012 7.145,6.6122 -2.2415,36.945 8.053,35.788 -1.4531,-8.6473 6.7564,-14.489 12.415,-16.74 4.8424,-5.349 7.8706,-11.254 15.052,-13.367 1.9256,-6.1972 7.3655,-10.452 7.9749,-16.851 -5.3206,-7.6073 -19.269,-2.6666 -18.958,-13.476 -8.5482,-2.6316 -16.876,-10.982 -26.127,-7.5759 -4.7622,4.783 -11.187,0.68145 -10.165,-5.3592 -8.1255,1.2049 1.8693,-10.952 -5.4303,-5.8126 -7.4985,8.4301 -7.9503,-12.739 1.6124,-9.8091 4.1972,-2.1638 8.4271,0.20406 9.4392,4.2403 -1.0272,-7.2298 14.121,-19.549 19.184,-18.468 0.41713,-0.36651 -1.7131,-3.3114 -5.2754,-2.1451 2.4081,-3.2886 17.233,-1.497 7.0304,-6.1949 -1.7829,-2.953 -5.1112,-1.9189 -8.21,-3.7609 -2.0289,2.8216 -4.8327,10.06 -6.7033,4.2107 -9.5347,-2.7353 4.3606,-5.8318 7.4187,-7.7583 3.5115,-2.9365 -10.373,3.2309 -8.0368,-1.7245 -6.0129,0.11092 -11.79,3.2967 -16.93,6.19 -6.1227,7.8054 -16.786,13.705 -15.49,25.045 -0.97475,5.6832 1.7858,6.743 0.93803,0.46278 6.988636,9.915828 -11.362945,18.163401 -18.965304,20.462483 1.818124,-6.52285 3.260909,-9.619532 5.492304,-15.453183 3.8759,-6.4869 4.99,-11.327 9.0177,-15.684 10.891,-12.956 24.545,-22.581 47.036,-23.632 6.228,-0.25661 -4.616,2.0225 3.098,1.4469 6.7233,-0.5017 8.4125,12.5 14.183,3.9534 4.9602,-2.0711 -10.616,-6.546658 -1.42,-4.849758 8.288,1.5833 17.842,4.502458 20.426,7.741958 5.4526,6.8351 4.4102,9.1642 10.701,33.271 -0.0536,9.0288 5.7485,24.106 17.046,21.141 2.914,2.4835 5.0431,6.5873 6.7113,9.6488 -1.1216,17.822 -6.2899,34.173 -23.601,49.002 -17.245,5.2335 -27.62,11.489 -37.994,14.044 -3.9328,-0.3502 -4.4059,0.54429 -9.9708,-1.7004 5.5143,1.4049 3.7861,-5.081 1.795,-3.1436 -0.66323,4.2739 -11.042,2.6166 -14.281,4.2621 -17.241921,-5.43135 -28.097506,-14.71775 -36.874,-27.34 z M 109.78,42.921 c 4.2845,-0.97186 1.6747,-4.868 -2.6806,-3.9971 2.9244,1.2032 -2.5209,3.634 2.6806,3.9971 z"
     style="fill:#5a7eb9"
     id="path12"
     inkscape:connector-curvature="0"
     sodipodi:nodetypes="ccccscccccccccccccccccccccccccccscccccccccccccccc"
     inkscape:export-filename="/home/dani/Insync/COMIGO SA/ReciclaComigo/Marketing/SiteReciclaComigo/setas.png"
     inkscape:export-xdpi="90"
     inkscape:export-ydpi="90" />
  <path
     style="fill:#87ac49;"
     d="m75.176,188.19c-0.53613-0.0236-0.89645-0.0595-0.80071-0.0798s-0.21965-0.0596-0.70086-0.0874c-5.6883-0.32853-12.521-2.2509-18.621-5.2385-8.5215-4.1741-16.382-10.672-23.131-19.121-2.3284-2.9148-4.5134-6.0381-6.5422-9.3514-4.4929-7.3375-7.4419-15.198-8.8656-23.629-0.36765-2.1774-0.75341-5.6467-0.7724-6.9465-0.0046-0.31692-0.02356-0.41706-0.05689-0.30093-0.02747,0.0957-0.06911-0.51895-0.09253-1.366-0.04764-1.723,0.0153-4.8205,0.09249-4.5518,0.03277,0.11408,0.05238,0.002,0.05693-0.32522,0.02906-2.0901,0.64042-6.9684,1.0903-8.6996,0.49332-1.8985,1.7046-5.2472,2.6661-7.3712,2.1179-4.678,5.3014-9.1665,9.3931-13.244,1.7943-1.788,4.2692-3.8348,5.426-4.4876,0.69445-0.39189,0.7254-0.62846,0.26197-2.0026-0.80856-2.3975-1.2803-6.5055-0.91568-7.9746,0.39746-1.6015,1.4308-2.5266,3.2233-2.8858,2.844-0.56989,6.9005,0.11917,13.482,2.2901,1.0513,0.34678,1.9808,0.63052,2.0657,0.63052,0.17705,0,5.009,1.4771,6.8405,2.0911,12.068,3.6363,10.945,8.4847,9.1229,17.994-0.19129,0.99557-0.47768,2.7187-0.63643,3.8291-0.3686,2.5784-0.57247,3.8469-0.87488,5.4436-1.295,6.837-3.1842,10.974-5.5365,12.125-1.1986,0.58618-2.2822,0.52852-3.6623-0.19488-1.3622-0.71403-2.3642-1.645-3.7124-3.4494-1.2844-1.719-1.6927-2.0483-2.6122-2.1068-0.37737-0.024-0.5707,0.00083-0.85645,0.11009-0.56282,0.21521-1.5974,0.8228-3.041,1.7859-0.7191,0.47974-1.3407,0.87225-1.3813,0.87225-0.11356,0-2.6334,1.9204-3.4942,2.6629-2.37,2.0444-4.7661,5.0642-5.8971,7.432-1.2572,2.6321-1.818,5.7746-1.6517,9.2554,0.28676,6.0005,2.0806,12.229,5.4248,18.836,0.98546,1.947,1.5833,3.0217,2.9434,5.2911,3.4096,5.6893,6.493,9.7209,10.209,13.348,6.0678,5.923,10.676,8.9314,18.757,12.245,0.64231,0.26341,1.4883,0.5905,1.8799,0.72688,2.1624,0.75297,7.1689,1.9003,10.286,2.3572,3.6464,0.53453,7.3527,0.13303,9.7025-1.0511,0.18571-0.0936,0.3515-0.15631,0.36842-0.13938,0.06892,0.0689-1.9013,1.4232-2.9382,2.0197-0.75783,0.43593-2.1623,1.0977-2.8855,1.3595-2.2536,0.81601-6.0669,1.5628-8.8057,1.7243-0.51,0.0301-0.78019,0.07-0.69627,0.10277,0.08315,0.0325-0.08213,0.0556-0.41988,0.0587-0.30636,0.003-1.0427,0.0165-1.6362,0.0304-0.59357,0.0139-1.5179,0.006-2.054-0.0176zm50.034-1.5803c-2.0127-0.5412-3.8755-3.3859-5.3073-8.105-0.524-1.727-1.13-4.2138-1.6625-6.8228-0.0821-0.40206-0.17585-0.80934-0.2084-0.90506-0.37068-1.0901-1.7779-7.4443-2.1535-9.724-0.83255-5.053-0.58771-7.6591,0.8801-9.3678,1.4352-1.6707,3.8272-2.9442,8.7228-4.644,3.2086-1.1141,3.6774-1.2861,5.4657-2.0064,5.8889-2.3719,9.6813-3.5357,12.881-3.9529,1.1932-0.15558,2.9591-0.14243,3.7599,0.028,1.8337,0.39031,2.7908,1.1888,3.2961,2.7498,0.17184,0.53086,0.16319,2.5871-0.0141,3.3508-0.21163,0.91174-0.45189,1.6078-0.95598,2.7698-0.78386,1.8069-0.89199,2.3345-0.63997,3.1225,0.2465,0.77074,1.0753,1.3568,3.8493,2.7217,0.86163,0.42395,1.5834,0.79626,1.6039,0.82733,0.0953,0.1445,2.9967,1.3146,4.3492,1.754,1.6165,0.52514,2.767,0.77736,4.6983,1.03,3.937,0.51499,7.0907,0.0131,10.553-1.6795,3.8412-1.8777,8.2726-5.5887,12.011-10.058,4.3928-5.2525,9.3731-13.992,11.928-20.932,0.70489-1.9147,1.1404-3.3474,1.7196-5.657,2.021-8.0584,2.279-13.651,1.0358-22.458-0.29447-2.086-0.96932-4.6714-2.1228-8.1327-0.36131-1.0842-0.86381-2.494-1.1167-3.1329-1.3831-3.4949-3.3562-6.2953-5.5987-7.9462-0.3255-0.23963-0.60654-0.44974-0.62451-0.4669-0.14314-0.13662,1.9163,0.81965,2.7159,1.2611,1.8525,1.0227,3.1933,2.0303,4.6276,3.4777,3.606,3.6389,6.6223,8.2565,8.7586,13.408,1.9428,4.6852,3.3759,11.173,3.6458,16.506,0.0258,0.5103,0.0682,0.86732,0.0941,0.79338,0.0741-0.21114,0.13105,2.7305,0.0853,4.4047-0.0228,0.83283-0.0612,1.4359-0.0855,1.3402s-0.0664,0.28022-0.0936,0.83545c-0.17295,3.5277-0.92576,8.3416-1.9314,12.35-2.3326,9.2984-7.0845,19.692-12.352,27.017-2.2046,3.0658-4.1814,5.3798-6.9932,8.1861-5.1556,5.1455-10.405,8.9145-16.821,12.077-2.9049,1.4319-5.7755,2.5851-7.5997,3.053-1.9991,0.51276-4.845,1.016-7.1612,1.2662-1.4047,0.15178-5.2567,0.21307-6.736,0.10719-5.7184-0.40931-11.86-1.9296-15.819-3.916-1.0536-0.52863-1.1394-0.522-1.7412,0.13464-1.4538,1.5862-1.9979,2.0867-3.5896,3.3015-2.4494,1.8694-3.9076,2.4236-5.354,2.0346zm29.83-109.62c-1.0951-0.11796-2.5332-0.73062-3.9916-1.7005-1.4679-0.97612-2.7746-2.0745-5.619-4.723-1.6878-1.5715-1.8607-1.7248-3.7008-3.2805-5.0074-4.2334-7.6068-6.8575-9.4412-9.5308-1.7503-2.5508-2.2553-4.6341-1.5068-6.2164,0.33474-0.7076,1.1438-1.4747,2.0463-1.9401,1.4033-0.72371,2.4759-0.99515,4.6302-1.1718,1.5302-0.12548,2.125-0.24043,2.5586-0.49448,0.36028-0.21112,0.82067-0.77403,0.92271-1.1282,0.1554-0.53931,0.22158-1.9174,0.16283-3.3907-0.0321-0.80411-0.0495-1.7595-0.0388-2.1231,0.022-0.74464-0.13061-2.5444-0.33944-4.0035-0.37362-2.6105-1.1853-5.2416-2.3624-7.6582-1.7446-3.5815-4.7071-6.3516-9.2023-8.6048-4.1977-2.1041-9.0114-3.5393-14.434-4.3036-5.7133-0.80527-13.641-0.88967-19.53-0.20791-2.3663,0.27394-4.5602,0.69248-7.3108,1.3948-5.9148,1.5101-10.081,3.2309-14.691,6.0673-2.1636,1.3312-5.2832,3.5176-6.5798,4.6114-1.5962,1.3466-4.1478,3.8729-6.1434,6.0824-3.0544,3.3819-4.6754,6.3857-5.1701,9.5806l-0.11858,0.76582-0.06184-0.41772c-0.11402-0.77022-0.07312-4.0824,0.06233-5.0475,0.5342-3.8061,2.6496-8.8991,5.5087-13.263,2.308-3.531,4.903-6.482,8.354-9.509,5.35-4.693,11.792-8.4096,19.113-11.027,5.678-2.0305,12.118-3.4075,18.698-3.9994,1.7587-0.1582,3.5789-0.279,4.3865-0.29111,0.3721-0.00558,0.48767-0.024109,0.34813-0.055813-0.32991-0.07496,3.5037-0.13816,5.5005-0.090681,0.99566,0.023674,1.7163,0.061816,1.6014,0.08476-0.11489,0.022944,0.26413,0.064219,0.84225,0.091723,3.6148,0.17197,8.0162,0.83706,11.895,1.7973,9.6812,2.3971,18.136,6.6584,25.732,12.969,1.9288,1.6025,3.6399,3.4534,5.6049,6.063,3.157,4.1926,5.2736,8.4038,6.9217,13.771,1.1168,3.6371,1.7328,6.9922,1.8557,10.108,0.0501,1.2689,0.0652,1.2869,1.3186,1.5665,1.4709,0.32808,3.1393,0.96133,5.0666,1.9231,1.2187,0.60814,1.9489,1.1002,2.5011,1.6856,1.2042,1.2764,1.3394,2.7421,0.43596,4.7244-1.1831,2.5959-4.0715,5.7139-9.2434,9.9782-0.67341,0.55522-1.2261,1.0376-1.2282,1.072-0.002,0.03435-0.1836,0.22581-0.40332,0.42547-0.36674,0.33325-0.391,0.37328-0.29591,0.48828,0.0966,0.11688,0.0937,0.11911-0.0441,0.03333-0.13766-0.08571-0.25285-0.000209-1.6971,1.2594-4.5517,3.9697-7.3946,6.0565-9.5084,6.9796-0.30413,0.13281-0.67829,0.29627-0.83147,0.36324-0.15318,0.06698-0.30121,0.1172-0.32895,0.11162-0.0278-0.0056-0.24707,0.03336-0.48739,0.08656-0.62015,0.13727-1.1193,0.16444-1.7577,0.09569zm15.272-8.1129c-0.0866-0.11042-0.0841-0.11288,0.0263-0.02629,0.11598,0.09095,0.15287,0.14812,0.0956,0.14812-0.0144,0-0.0693-0.05483-0.12185-0.12184zm-0.34813-0.41773c-0.0866-0.11042-0.0841-0.11288,0.0263-0.02628,0.11598,0.09095,0.15286,0.14812,0.0956,0.14812-0.0144,0-0.0693-0.05483-0.12184-0.12184z"
     id="path14"
     inkscape:export-filename="/home/dani/Insync/COMIGO SA/ReciclaComigo/Marketing/SiteReciclaComigo/setas.png"
     inkscape:export-xdpi="90"
     inkscape:export-ydpi="90" />
  <a
     id="setas"
     inkscape:export-xdpi="90"
     inkscape:export-ydpi="90">
    <path
       sodipodi:nodetypes="csccccscccccsccccssccccccsscsccssccccssscccsccccsccsscsscc"
       inkscape:connector-curvature="0"
       id="path16"
       d="m 88.022,181.14 c -2.1027,-0.12643 -3.7765,-0.39393 -6.0656,-0.9694 -4.4961,-1.1303 -9.7465,-3.262 -14.045,-5.7022 -6.384687,-3.48319 -12.242281,-9.27414 -15.921,-13.859 -3.0274,-3.7921 -4.9929,-6.6122 -6.7688,-9.712 -3.154506,-5.53644 -5.646783,-12.01106 -6.4728,-17.8573 -0.17181,-1.2857 -0.17768,-3.7788 -0.01065,-4.5253 0.23368,-1.0444 0.21306,-1.0415 0.67882,-0.0971 2.0426,4.1414 6.5921,8.1868 13.617,12.108 1.0942,0.61075 4.527098,1.99627 5.487398,2.43307 16.123438,21.05214 24.69072,22.96405 44.368102,28.96283 -0.28719,1.51016 -2.74425,4.90654 -4.59832,6.4977 -1.4454,1.2138 -2.861,1.9359 -4.7397,2.4176 -1.4166,0.36323 -3.0483,0.45281 -5.5303,0.30358 z m 83.552,-26.38 c 0,-0.0316 0.16793,-0.30285 0.37318,-0.60266 1.7134,-2.5029 2.8426,-5.9293 3.3803,-10.257 0.25587,-2.0593 0.29403,-2.7101 0.33277,-5.674 0.0384,-2.9401 -0.0166,-4.7385 -0.22397,-7.3138 l -0.10118,-1.2568 0.0697,-1.1102 c 7.1293,-18.455 2.8092,-42.753 -0.87737,-50.882 3.0236,-0.37104 4.3384,-0.72724 8.1701,-0.29526 3.2797,0.40353 5.5012,1.4254 7.5482,3.4723 1.0247,1.0246 1.7487,2.0955 2.8757,4.2533 1.2857,2.4617 2.0428,4.5095 2.8231,7.6363 0.93527,3.7478 1.4809,7.6359 1.6756,11.94 0.0873,1.9291 0.055,3.2449 -0.14948,6.0918 -0.40853,5.6885 -1.1525,9.0766 -3.2059,14.6 -2.1178,5.6969 -4.1014,9.8955 -6.5714,13.909 -2.395,3.892 -4.328,6.3924 -7.2054,9.32 -2.6523,2.6986 -5.0364,4.588 -6.9751,5.5277 -0.8787,0.42591 -1.9389,0.77687 -1.9389,0.64184 z M 61.094,59.125 c -1.4513,-1.7511 -3.0599,-4.8585 -3.7059,-7.1586 -0.3519,-1.2531 -0.44372,-1.9033 -0.44666,-3.1626 -0.0053,-2.2672 0.48393,-4.0751 1.6485,-6.0918 0.69629,-1.2058 2.2069,-3.3645 3.0693,-4.3861 3.4813,-4.124 9.656,-8.8785 15.466,-11.909 1.1779,-0.61432 3.9571,-1.8667 5.7337,-2.5838 4.7458,-1.9154 9.4011,-2.8886 17.069,-3.5684 2.8128,-0.24934 4.3217,-0.3046 7.1941,-0.26347 4.9984,0.07157 8.7048,0.50795 12.615,1.4852 4.2778,1.0692 7.8167,2.4796 10.095,4.0231 0.63543,0.43057 1.771,1.4622 1.6942,1.539 -0.0232,0.02317 -0.3039,0.0063 -0.62384,-0.03755 -0.82532,-0.11304 -2.8617,-0.0968 -3.8957,0.03105 -5.0998,0.63062 -10.942,3.104 -18.34,7.7651 l -1.1837,0.74571 -1.2084,0.1199 c -8.7625,0.8695 -17.983,3.7952 -25.644,8.1371 -3.9544,2.2412 -7.0261,4.3792 -11.234,7.819 -2.5314,2.0695 -5.4305,4.9093 -7.5457,7.3916 -0.20393,0.23932 -0.39609,0.43513 -0.42703,0.43513 -0.03094,0 -0.17959,-0.14881 -0.33034,-0.33069 z"
       style="fill:#07763c" />
  </a>
</svg>
