<?xml version="1.0" encoding="UTF-8" standalone="no"?>
<svg
   xmlns:dc="http://purl.org/dc/elements/1.1/"
   xmlns:cc="http://creativecommons.org/ns#"
   xmlns:rdf="http://www.w3.org/1999/02/22-rdf-syntax-ns#"
   xmlns:svg="http://www.w3.org/2000/svg"
   xmlns="http://www.w3.org/2000/svg"
   xmlns:sodipodi="http://sodipodi.sourceforge.net/DTD/sodipodi-0.dtd"
   xmlns:inkscape="http://www.inkscape.org/namespaces/inkscape"
   id="svg2"
   height="187"
   width="936.91888"
   version="1.1"
   inkscape:version="0.48.5 r10040"
   sodipodi:docname="logonome.svg">
  <sodipodi:namedview
     pagecolor="#ffffff"
     bordercolor="#666666"
     borderopacity="1"
     objecttolerance="10"
     gridtolerance="10"
     guidetolerance="10"
     inkscape:pageopacity="0"
     inkscape:pageshadow="2"
     inkscape:window-width="1366"
     inkscape:window-height="715"
     id="namedview8"
     showgrid="false"
     inkscape:zoom="0.70710678"
     inkscape:cx="416.80878"
     inkscape:cy="197.8163"
     inkscape:window-x="0"
     inkscape:window-y="0"
     inkscape:window-maximized="1"
     inkscape:current-layer="svg2"
     fit-margin-top="0"
     fit-margin-left="0"
     fit-margin-right="0"
     fit-margin-bottom="0" />
  <defs
     id="defs4" />
  <metadata
     id="metadata7">
    <rdf:RDF>
      <cc:Work
         rdf:about="">
        <dc:format>image/svg+xml</dc:format>
        <dc:type
           rdf:resource="http://purl.org/dc/dcmitype/StillImage" />
        <dc:title></dc:title>
      </cc:Work>
    </rdf:RDF>
  </metadata>
  <path
     inkscape:connector-curvature="0"
     id="comigo"
     d="m 825.45861,159.23769 c -7.50256,-1.05973 -14.16371,-4.75023 -17.52877,-9.71155 -1.25362,-1.84827 -2.62832,-4.90498 -2.6122,-5.80837 0.008,-0.44467 0.11767,-0.40906 0.67517,0.21904 3.24587,3.65692 8.52678,5.72737 14.74662,5.78161 2.54094,0.0222 3.82647,-0.12072 5.61165,-0.62372 11.17019,-3.14737 18.94317,-13.15681 20.89572,-26.90789 0.40849,-2.87676 0.39695,-8.16082 -0.0183,-8.41781 -0.18518,-0.11459 -1.4497,0.92702 -2.89925,2.38815 -2.81664,2.83917 -4.80568,4.28702 -7.64731,5.56662 -8.78497,3.95593 -20.5296,1.93067 -27.89657,-4.81051 -3.37471,-3.08803 -5.83679,-7.12425 -7.25287,-11.88995 -1.06476,-3.58345 -1.33791,-10.311592 -0.58171,-14.329114 1.97067,-10.469766 9.35775,-18.199311 19.83264,-20.752083 2.79347,-0.680784 9.10747,-0.679941 11.90445,0.0015 4.6105,1.123416 7.97403,3.025644 11.91745,6.739854 2.71995,2.561847 2.93943,2.536998 2.94701,-0.333702 0.0147,-5.563665 6.08852,-8.445219 10.36388,-4.916841 2.32925,1.92231 2.21149,0.510096 2.21859,26.603793 0.004,13.134263 -0.12387,24.685783 -0.29289,26.550003 -0.64647,7.12921 -2.15492,14.68715 -3.73898,18.73384 -3.90414,9.97354 -12.73813,15.54721 -25.43793,16.04968 -1.83345,0.0725 -4.17627,0.0128 -5.20633,-0.13265 z m 10.60388,-47.23852 c 5.45733,-1.73515 9.65682,-6.0268 11.05912,-11.30179 0.23548,-0.885812 0.42974,-2.763458 0.43168,-4.17254 0.007,-4.645986 -1.2751,-7.886487 -4.40108,-11.12838 -3.13959,-3.255981 -7.02263,-4.990644 -11.80201,-5.27226 -8.46157,-0.498579 -15.53984,4.282842 -17.47717,11.805912 -0.60251,2.339673 -0.61018,6.659811 -0.0159,8.944228 1.57902,6.06961 6.70349,10.69649 13.1287,11.8539 2.42562,0.43695 6.41791,0.11627 9.07664,-0.72907 z m -17.33598,35.9723 c -4.8094,-0.74976 -8.68274,-2.50552 -10.76464,-4.87957 -0.52718,-0.60116 -1.40224,-2.05452 -1.94452,-3.22969 -0.97232,-2.107 -1.01121,-2.14588 -2.80001,-2.7989 -4.05599,-1.48069 -3.47823,-3.32065 2.77125,-8.82539 3.33929,-2.94135 5.0939,-4.1127 6.12438,-4.08853 0.95994,0.0225 2.37968,0.98514 5.98319,4.05682 6.08672,5.18838 6.92666,7.54776 3.03361,8.52139 -2.1818,0.54567 -2.18923,0.55706 -2.17839,3.34589 0.0132,3.36893 0.56212,5.18591 2.00289,6.62841 0.99677,0.99799 1.27549,1.80185 0.59148,1.70585 -0.11389,-0.016 -1.38255,-0.2123 -2.81924,-0.43628 z M 314.06112,131.01342 c -2.99726,-0.4142 -7.56148,-2.06444 -10.40682,-3.7627 -4.68564,-2.79665 -9.13313,-7.99147 -11.32621,-13.22942 -1.60316,-3.82901 -2.13899,-6.47318 -2.31311,-11.41471 -0.24164,-6.857802 0.66432,-11.264592 3.41887,-16.630242 3.66525,-7.13961 9.30678,-11.878002 16.73649,-14.057202 2.73099,-0.801024 8.05466,-1.089639 11.0815,-0.600765 12.14041,1.960836 20.55701,11.7369 22.01209,25.567494 0.44665,4.245455 0.42832,4.387535 -0.7137,5.530935 l -1.01877,1.02 -22.8023,0 -22.8023,0 0,1.30201 c 0,1.95127 1.05968,5.74657 2.35875,8.44799 2.82017,5.86453 6.99529,9.616 13.0725,11.74603 2.23939,0.78489 2.71249,0.84025 7.19127,0.8415 4.63413,0.001 4.88771,-0.0312 7.59595,-0.97249 3.44545,-1.19755 6.06349,-2.71104 9.15076,-5.29007 1.3003,-1.08623 2.58124,-1.99052 2.84654,-2.00951 1.89231,-0.13553 3.02927,0.80541 3.02927,2.507 0,1.04068 -0.20397,1.36385 -1.87272,2.96715 -3.90202,3.74895 -9.15969,6.58642 -14.0566,7.58606 -2.93495,0.59914 -8.4884,0.8231 -11.18146,0.45094 z m 23.21551,-33.988144 c 0,-1.804554 -1.23524,-6.521046 -2.35599,-8.995809 -3.33069,-7.35459 -9.11355,-11.37723 -16.97402,-11.80737 -9.4331,-0.516195 -17.50772,5.452608 -20.79217,15.369672 -0.52456,1.583847 -1.03486,3.749421 -1.134,4.812381 l -0.18025,1.93266 20.71822,0 20.71821,0 0,-1.311534 z m 33.55924,34.005174 c -6.1085,-0.85239 -11.9558,-3.81836 -16.50275,-8.37084 -16.16715,-16.18678 -9.17777,-43.891581 12.76804,-50.610534 2.48063,-0.759471 3.07544,-0.822129 7.7798,-0.819519 6.07981,0.0034 8.21664,0.466491 12.88435,2.792439 4.35005,2.167656 8.91163,5.75373 9.30255,7.313166 0.52948,2.112213 -1.22158,3.963066 -3.36901,3.561003 -0.36215,-0.0678 -1.50826,-0.861948 -2.54691,-1.764765 -4.37192,-3.800166 -8.21299,-5.762607 -12.85397,-6.567219 -12.05325,-2.08968 -23.53717,6.173409 -26.24208,18.882108 -0.67902,3.190275 -0.60391,8.459021 0.16651,11.680931 1.76518,7.38195 6.40227,13.34598 12.76071,16.41228 3.61779,1.74465 6.38271,2.39906 10.10682,2.3921 6.2228,-0.0116 11.10508,-2.03367 16.82287,-6.96734 2.65467,-2.29062 3.30813,-2.45263 4.73699,-1.1744 1.48956,1.33254 1.33017,2.39028 -0.66946,4.44272 -3.76894,3.86848 -8.79532,6.83931 -13.66333,8.07569 -3.26828,0.83007 -8.39632,1.15263 -11.48113,0.72218 z m 72.96139,0.12518 c -6.84046,-1.01476 -12.02197,-3.46356 -16.68921,-7.88735 -4.30872,-4.08398 -7.08988,-8.78764 -8.53093,-14.42803 -3.92487,-15.362138 4.65347,-31.456382 19.39297,-36.38414 3.46539,-1.158561 6.40096,-1.529115 10.55858,-1.332795 6.17052,0.291366 11.27928,2.134362 16.24311,5.859741 3.58196,2.688279 4.48092,3.724152 4.48092,5.163381 0,1.602399 -1.10812,2.750373 -2.65488,2.750373 -1.20555,0 -1.12702,0.04739 -4.68869,-2.829171 -5.67691,-4.584915 -11.52004,-6.451749 -17.70719,-5.657316 -9.63516,1.237161 -17.17665,8.055612 -19.77215,17.876487 -0.7697,2.912382 -0.92642,9.44742 -0.29499,12.3 1.89761,8.57265 7.90174,15.47693 15.8589,18.2365 3.64724,1.26488 8.63512,1.48685 12.35246,0.5497 4.42692,-1.11603 7.6643,-2.94915 12.51175,-7.0846 1.88143,-1.60507 2.74961,-1.70856 3.98201,-0.47468 1.33043,1.33205 1.19402,2.40823 -0.54063,4.26496 -3.51893,3.76659 -9.3027,7.17262 -14.17764,8.34913 -2.45517,0.59253 -8.40771,1.01215 -10.32439,0.72781 z m 63.54786,-0.13007 c -4.66428,-0.73577 -8.75392,-2.39398 -12.01046,-4.86984 -4.42433,-3.36369 -6.72521,-8.57392 -6.32334,-14.31891 0.20877,-2.98455 0.70217,-4.75681 2.00636,-7.20669 2.49858,-4.693521 7.77666,-8.089212 14.96146,-9.625587 5.83113,-1.246911 16.5676,-0.827283 23.90754,0.934407 1.37006,0.32883 2.63548,0.59787 2.81212,0.59787 0.21927,0 0.27228,-1.165314 0.16719,-3.675 -0.12282,-2.932839 -0.30784,-4.091778 -0.91622,-5.738775 -1.85589,-5.024238 -5.32103,-8.075745 -10.99623,-9.683613 -1.57443,-0.446061 -2.9524,-0.547155 -7.19126,-0.527592 -5.95209,0.02748 -8.4036,0.51468 -14.09663,2.801508 -2.83135,1.137318 -3.08545,1.18851 -4.00012,0.805872 -1.20647,-0.504708 -1.90642,-1.964949 -1.49853,-3.126213 0.37471,-1.066773 1.7265,-1.920507 4.84309,-3.058695 8.48937,-3.100353 17.267,-3.739887 24.3516,-1.774257 7.38816,2.049843 12.39178,7.086966 14.43023,14.526765 0.63823,2.329422 0.66094,2.955801 0.77141,21.3 0.0803,13.32298 0.0153,19.23145 -0.21984,20.02325 -0.61275,2.06259 -3.00526,2.57574 -4.51369,0.96813 -0.6156,-0.65608 -0.6968,-1.09631 -0.82717,-4.48444 -0.0795,-2.06632 -0.17742,-3.75694 -0.2176,-3.75694 -0.0402,0 -1.13436,1.05207 -2.43154,2.33793 -3.74045,3.70782 -7.20176,5.67028 -12.30654,6.97745 -2.67892,0.68598 -8.13491,0.9783 -10.70183,0.57337 z m 11.06152,-5.83115 c 7.65252,-2.10654 13.4441,-7.76964 14.52012,-14.198 0.18503,-1.10528 0.29718,-3.62609 0.24921,-5.6018 l -0.0872,-3.59221 -2.69795,-0.64257 c -6.62684,-1.57832 -15.96722,-2.313539 -20.93269,-1.647701 -9.78105,1.311581 -14.96131,6.339671 -14.51336,14.087071 0.32671,5.65056 4.37406,9.92994 11.1201,11.75758 1.7935,0.4859 2.8564,0.56258 6.34902,0.45806 2.59499,-0.0777 4.88059,-0.31429 5.99272,-0.62043 z m 62.92357,5.54299 c -18.28514,-1.95035 -32.13881,-15.092 -35.08864,-33.285209 -0.54327,-3.350601 -0.53141,-10.551927 0.0231,-13.974327 2.51826,-15.54501 13.1445,-27.674427 28.02418,-31.988497 3.47063,-1.00624 7.45645,-1.496879 12.13526,-1.493807 9.69413,0.0064 17.04837,2.202254 24.50832,7.317888 3.63087,2.489835 4.25675,3.471609 4.25675,6.677103 0,2.204895 -0.0851,2.570442 -0.85789,3.686976 -1.60518,2.319093 -5.23506,3.419022 -7.76627,2.353344 -0.53032,-0.223266 -2.04289,-1.18308 -3.36129,-2.132925 -3.05383,-2.200134 -6.31716,-3.843207 -9.65373,-4.860567 -2.34801,-0.715944 -3.13144,-0.804549 -7.2757,-0.822879 -3.98858,-0.01764 -4.98283,0.07674 -7.04145,0.668436 -11.3403,3.259461 -18.85553,13.151307 -19.52827,25.703874 -0.85831,16.01489 9.76304,29.00073 24.56386,30.03224 3.16602,0.22065 7.48539,-0.25578 10.39567,-1.14665 2.7449,-0.84025 6.67667,-2.93744 9.1389,-4.87468 3.54433,-2.78862 4.97791,-3.34031 7.35405,-2.8301 3.76625,0.8087 5.9239,5.25054 4.19686,8.63991 -1.64423,3.22685 -9.15376,8.20523 -15.596,10.33922 -5.34026,1.76897 -12.875,2.58291 -18.42762,1.99065 z m 62.175,-0.0208 c -10.5062,-1.30116 -19.41765,-7.42682 -23.97434,-16.47974 -5.98358,-11.88787 -3.67377,-26.419035 5.67763,-35.718039 6.0946,-6.060468 13.41012,-8.981961 22.4911,-8.981961 9.07319,0 16.48232,2.956737 22.49548,8.9772 6.44829,6.456108 9.59512,15.424029 8.64956,24.64954 -0.54051,5.27353 -2.10018,9.68275 -4.9327,13.94495 -5.56804,8.37842 -14.41519,13.23733 -25.01379,13.73775 -1.7304,0.0817 -4.15722,0.0233 -5.39294,-0.1297 z m 7.93583,-11.51956 c 7.10611,-1.36128 12.46153,-6.82257 14.10225,-14.38101 0.73171,-3.37085 0.48748,-7.896343 -0.60044,-11.12629 -3.27988,-9.737745 -12.51457,-14.770827 -22.48688,-12.25578 -2.84412,0.7173 -5.17771,2.117205 -7.656,4.592805 -3.78773,3.783612 -5.47468,8.139336 -5.46482,14.110095 0.006,3.66558 0.53586,6.0127 2.09925,9.3 1.50165,3.15761 5.09606,6.76288 8.22626,8.25123 3.92467,1.86607 7.51527,2.32599 11.78038,1.50895 z m 240.54816,11.52799 c -7.82296,-0.97674 -14.42184,-4.24289 -19.35849,-9.58154 -3.3251,-3.59584 -5.51157,-7.50559 -6.96627,-12.45663 -1.1287,-3.84157 -1.35274,-10.427436 -0.49494,-14.55 2.42846,-11.671248 10.49382,-20.238969 22.23896,-23.624067 3.50337,-1.009719 10.8767,-1.282386 14.77997,-0.546564 12.02343,2.266593 21.00388,10.564998 24.23147,22.391172 0.60662,2.222682 0.68788,3.18438 0.67011,7.929459 -0.0186,4.96431 -0.0854,5.61785 -0.82816,8.1 -2.79899,9.35389 -9.25208,16.55969 -18.04355,20.1483 -4.65778,1.90126 -11.32993,2.80156 -16.2291,2.18987 z m 9.97483,-12.111 c 4.40779,-1.40336 8.167,-4.7095 10.27371,-9.0355 1.51781,-3.11674 1.96001,-5.26165 1.9465,-9.44167 -0.0105,-3.217359 -0.12381,-4.09089 -0.79859,-6.15 -3.67843,-11.224575 -15.54926,-16.383702 -25.89165,-11.252628 -4.41469,2.190222 -7.85181,6.544821 -9.237,11.702628 -0.7543,2.808663 -0.88321,6.73595 -0.31534,9.60763 2.27934,11.52663 13.05425,18.06161 24.02237,14.56954 z m -675.25311,11.49051 c -0.412,-0.16185 -0.98205,-0.59204 -1.26679,-0.95598 -0.48421,-0.61889 -0.51813,-3.11346 -0.52436,-38.559776 l -0.007,-37.898078 0.89246,-0.89355 0.89247,-0.893549 18.65879,0.118089 c 20.0172,0.126687 19.72688,0.106049 24.80132,1.763095 9.98208,3.25962 15.89232,10.993905 15.87551,20.775057 -0.007,3.942504 -0.59462,6.638409 -2.13188,9.777012 -1.00726,2.056512 -1.74764,3.043488 -3.82575,5.1 -1.41724,1.4025 -3.36207,3.011277 -4.32185,3.575058 -2.25998,1.327527 -6.58392,2.946657 -9.60939,3.598302 -1.31543,0.283326 -2.44234,0.667269 -2.50424,0.853209 -0.0619,0.18594 4.88647,6.822981 10.9964,14.748991 6.10993,7.926 11.26263,14.74857 11.45044,15.16127 0.51279,1.12681 -0.0193,2.56827 -1.25673,3.40446 -1.279,0.8643 -2.48858,0.70641 -3.62507,-0.4732 -0.43351,-0.44995 -5.94712,-7.56809 -12.25247,-15.81809 -6.30536,-8.25 -11.73843,-15.30375 -12.07349,-15.675 l -0.6092,-0.675 -12.47255,0 c -9.30137,0 -12.56398,0.09153 -12.83212,0.36 -0.27029,0.270609 -0.35957,4.16743 -0.35957,15.69343 0,15.15292 -0.007,15.34138 -0.62804,16.00838 -0.57303,0.61582 -1.80666,1.26608 -2.31292,1.21917 -0.11287,-0.0105 -0.54231,-0.15144 -0.95431,-0.3133 z m 37.32195,-38.936381 c 10.24111,-2.11623 16.11557,-8.470302 16.11557,-17.431299 0,-7.435677 -3.91869,-12.894603 -11.1404,-15.519126 -4.51303,-1.640133 -4.73706,-1.658508 -21.8911,-1.795482 -13.03602,-0.104091 -16.04625,-0.05437 -16.25067,0.268425 -0.2951,0.465966 -0.3541,34.55205 -0.0603,34.846182 0.10987,0.110001 7.02022,0.198228 15.35635,0.196059 13.62632,-0.0035 15.4306,-0.06056 17.87057,-0.564759 z m 141.8934,38.850051 c -1.56256,-0.86712 -1.50915,0.15433 -1.52054,-29.07943 l -0.0106,-27.248075 0.87586,-0.876921 c 0.93586,-0.936996 2.24547,-1.152186 3.36411,-0.552777 1.46661,0.785859 1.45312,0.517032 1.45312,28.945883 0,28.99591 0.052,28.09987 -1.67654,28.8884 -0.95937,0.43765 -1.59325,0.41799 -2.48539,-0.0771 z m 72.28629,0.13253 c -0.35317,-0.14894 -0.85881,-0.58053 -1.12364,-0.95909 -0.4364,-0.6238 -0.48151,-4.42287 -0.48151,-40.544619 l 0,-39.856325 0.9128,-0.913917 c 0.7887,-0.78965 1.06371,-0.889868 2.02255,-0.737051 0.66206,0.105517 1.3817,0.490252 1.78391,0.953723 l 0.67418,0.776857 0,39.866542 0,39.86654 -0.67418,0.76705 c -0.74695,0.84985 -2.12839,1.19599 -3.11411,0.78029 z m 209.34172,-0.39061 c -1.5291,-0.51375 -3.4133,-2.53478 -3.85335,-4.13315 -0.28183,-1.02366 -0.34838,-7.22004 -0.28189,-26.24012 0.0958,-27.403428 -0.0313,-25.589367 1.93196,-27.573234 2.66284,-2.690784 7.5787,-2.228271 9.78944,0.921042 0.66939,0.953598 0.91794,1.756917 1.15513,3.733605 0.16621,1.385223 0.36388,2.582049 0.43926,2.659617 0.0754,0.07756 1.21281,-1.028628 2.52758,-2.458209 2.75693,-2.997717 5.69582,-5.074836 8.76109,-6.192093 1.96945,-0.717849 2.54065,-0.784029 6.79458,-0.78723 4.11931,-0.0031 4.89671,0.07925 6.87656,0.728388 3.91762,1.284489 7.84096,4.380606 9.81191,7.743114 0.41104,0.70125 0.92348,1.275 1.13871,1.275 0.21523,0 1.08171,-0.79791 1.92555,-1.773132 4.68127,-5.410218 10.74887,-8.126868 18.15123,-8.126868 6.55179,0 10.74471,1.548951 14.54763,5.374176 2.60923,2.624535 4.05732,5.260428 5.12333,9.325824 0.65111,2.483064 0.67152,3.043671 0.7778,21.35687 0.0789,13.59837 0.0132,19.16356 -0.23723,20.09484 -0.65973,2.45303 -3.40617,4.44495 -6.12863,4.44495 -2.19807,0 -4.84829,-1.5279 -5.93354,-3.42078 -0.26066,-0.45469 -0.40865,-5.2211 -0.54097,-17.42588 -0.15374,-14.177847 -0.25876,-17.094126 -0.67292,-18.684444 -1.60009,-6.144348 -5.64224,-9.365556 -11.75248,-9.365556 -5.15221,0 -9.07531,2.345457 -11.29028,6.75 -1.54268,3.06768 -1.52641,2.869587 -1.70376,20.72413 l -0.16711,16.82412 -0.90038,1.47588 c -1.12444,1.84318 -3.4065,3.12587 -5.5613,3.12587 -2.10638,0 -4.37814,-1.2921 -5.51915,-3.13915 l -0.90352,-1.46262 -0.16684,-17.12411 c -0.17939,-18.41529 -0.1449,-18.019275 -1.85199,-21.249747 -1.913,-3.620145 -5.13951,-5.603742 -9.52192,-5.853921 -5.28103,-0.301476 -9.59846,2.010891 -11.87129,6.358173 -1.80309,3.448809 -1.71853,2.527398 -1.90161,20.721375 -0.18478,18.36431 -0.14113,17.9287 -1.97996,19.75285 -0.47286,0.46908 -1.25521,1.05761 -1.73855,1.30786 -1.14416,0.59239 -3.94594,0.75846 -5.27309,0.31256 z m 97.82809,0.0329 c -1.4606,-0.54071 -2.80612,-1.70487 -3.52348,-3.04859 l -0.67142,-1.25762 -0.0816,-24.84295 c -0.0583,-17.73269 0.015,-25.20257 0.25631,-26.099471 0.50557,-1.879845 2.69789,-3.942711 4.61949,-4.346727 3.31196,-0.696336 6.21352,0.722736 7.55152,3.693243 0.50156,1.113546 0.54452,2.845371 0.62381,25.147611 0.0556,15.630364 -0.0228,24.536604 -0.22566,25.635254 -0.59151,3.20352 -2.72872,5.12188 -5.94673,5.33776 -0.93681,0.0628 -2.10782,-0.0355 -2.60222,-0.21851 z m -0.68263,-68.797136 c -2.93328,-0.917076 -4.56603,-3.185925 -4.5544,-6.3288 0.012,-3.236132 1.60044,-5.380082 4.67186,-6.305573 4.51417,-1.360215 9.15322,0.8064 9.97393,4.658186 0.25936,1.217328 0.26275,2.043585 0.0132,3.246612 -0.81372,3.92442 -5.56574,6.148644 -10.10469,4.729575 z M 404.8146,56.81681 c -0.96062,-0.961785 -1.0187,-1.137282 -1.01764,-3.075 0.002,-2.522988 0.65044,-3.777727 2.22296,-4.297337 1.32295,-0.437144 2.75759,-0.03519 3.7859,1.060735 0.54679,0.582731 0.73164,1.175193 0.82508,2.644385 0.19422,3.053933 -1.09644,4.687217 -3.70396,4.687217 -0.84416,0 -1.32593,-0.232638 -2.11234,-1.02 z"
     style="fill:#70b08e" />
  <path
     inkscape:connector-curvature="0"
     id="recicla"
     d="m 818.7918,147.32903 c -2.08059,-0.35017 -5.41086,-1.42622 -6.94074,-2.24263 -2.53672,-1.3537 -4.18436,-3.13588 -5.32882,-5.76397 -0.97067,-2.22893 -0.99533,-2.25526 -2.5822,-2.75499 -3.88293,-1.22282 -3.37816,-2.65776 2.82227,-8.02296 3.66943,-3.17517 4.17069,-3.50767 5.28767,-3.50767 1.10162,0 1.57022,0.30989 5.27309,3.48692 6.28301,5.3908 6.77849,6.92695 2.52042,7.81401 -1.78098,0.37102 -2.11106,1.26468 -1.685,4.56173 0.44433,3.4382 0.80494,4.63898 1.72018,5.72802 0.8219,0.97794 0.76677,1.01351 -1.08687,0.70154 z M 312.25702,129.96092 c -4.51212,-0.99178 -8.93553,-3.36326 -12.49821,-6.70054 -6.51417,-6.10204 -9.60065,-14.17144 -9.13143,-23.87357 0.89634,-18.533991 16.34908,-31.117809 32.98202,-26.858652 2.52882,0.647547 5.90999,2.241375 7.97352,3.75858 1.70875,1.256361 4.68773,4.372653 5.94807,6.222249 2.86302,4.201572 4.78574,10.168188 5.05214,15.677823 0.15157,3.13469 0.12615,3.33006 -0.50732,3.9 -0.65155,0.58621 -1.19828,0.60345 -23.78246,0.75 l -23.11559,0.15 0.06,1.74463 c 0.0753,2.19159 1.04541,5.982 2.16197,8.44752 2.15887,4.76705 6.14554,8.93314 10.63593,11.11459 3.68468,1.79003 6.12744,2.3412 10.36393,2.33847 6.91757,-0.004 12.36051,-2.11792 17.66975,-6.86102 1.98474,-1.7731 3.11036,-2.07802 4.00742,-1.08557 0.95977,1.06182 0.6264,1.96036 -1.44819,3.90339 -3.64948,3.41806 -7.80472,5.77873 -12.28862,6.9814 -3.21197,0.86151 -10.9627,1.07654 -14.0829,0.3907 z m 25.37007,-31.051344 c 0.54463,-0.291831 0.58908,-0.510909 0.41078,-2.025 -0.62412,-5.300139 -2.94997,-11.163945 -5.76025,-14.52246 -3.80696,-4.549629 -8.88372,-6.825306 -15.22642,-6.825306 -6.02106,0 -10.30705,1.769562 -14.53235,6 -3.87972,3.884427 -6.07983,8.212968 -7.09758,13.96389 -0.49945,2.822214 -0.49794,2.917572 0.053,3.32088 0.46995,0.344055 4.07897,0.41523 21.05467,0.41523 14.22203,0 20.67427,-0.100074 21.0982,-0.327234 z m 31.29825,31.035954 c -10.68473,-2.29407 -18.77785,-10.2981 -21.95038,-21.70872 -0.83667,-3.00927 -0.75989,-11.281272 0.13505,-14.55 0.80697,-2.94738 2.94106,-7.452132 4.68211,-9.883257 1.69889,-2.372241 5.54494,-6.085203 7.7904,-7.520814 7.22961,-4.622172 15.86228,-5.796582 23.91935,-3.254046 4.15581,1.311429 8.41155,3.842817 11.50677,6.844413 1.74729,1.694439 1.92868,2.35926 0.97491,3.573246 -1.01165,1.287672 -2.13319,1.07535 -4.28974,-0.812112 -3.71645,-3.252711 -6.70033,-4.99599 -10.68087,-6.240102 -2.9291,-0.915486 -9.22258,-0.996312 -12.27452,-0.157638 -14.05343,3.861882 -21.53295,19.764801 -16.1899,34.42288 4.48887,12.31473 17.84888,18.95617 29.88645,14.85696 3.7354,-1.27204 6.79934,-3.14046 10.18006,-6.20793 1.07388,-0.97438 2.12299,-1.7716 2.33135,-1.7716 0.20836,0 0.73411,0.2798 1.16833,0.62177 1.33682,1.05282 1.07852,2.04569 -1.04406,4.01322 -4.79417,4.44395 -9.11026,6.76037 -14.59787,7.8346 -2.80051,0.54821 -8.85935,0.51627 -11.54744,-0.0609 z m 72.17986,-0.007 c -8.52885,-1.82956 -15.58403,-7.36437 -19.63127,-15.40081 -6.6798,-13.26379 -2.37578,-29.711774 9.96052,-38.064518 8.76675,-5.935848 20.80509,-6.330108 29.79625,-0.97584 2.61473,1.557084 6.55641,4.633668 7.00015,5.463801 0.51572,0.964809 0.33422,2.307639 -0.37956,2.808201 -1.20116,0.842346 -2.09856,0.578139 -4.15055,-1.221993 -6.69859,-5.8764 -13.72733,-8.040528 -21.36342,-6.577728 -4.68731,0.897924 -8.21436,2.814468 -11.90086,6.466737 -5.00228,4.955826 -7.46391,11.082954 -7.46391,18.57804 0,11.87967 6.96322,21.55409 17.8395,24.78549 2.19796,0.65303 3.31121,0.80134 6.13138,0.81685 6.74422,0.0371 12.00381,-2.11226 17.76776,-7.26094 1.12028,-1.00069 2.23881,-1.81944 2.48562,-1.81944 0.68507,0 1.91969,1.387 1.91969,2.15662 0,0.92271 -3.28821,3.99084 -6.71409,6.2647 -2.99821,1.99002 -6.1096,3.29687 -9.52853,4.00221 -2.90959,0.60026 -8.9217,0.58934 -11.76868,-0.0214 z m 64.41709,0.0522 c -7.9395,-1.85473 -13.27202,-6.12219 -15.16076,-12.13272 -0.85323,-2.71523 -0.85141,-7.20317 0.004,-9.94328 1.5915,-5.0978 5.91282,-9.151868 11.94463,-11.205911 3.43903,-1.171113 7.18202,-1.672449 12.48657,-1.672449 5.49035,0 8.19523,0.271632 13.97455,1.40337 2.23975,0.438606 4.31587,0.703881 4.61358,0.5895 0.49321,-0.189483 0.52497,-0.507288 0.35765,-3.575418 -0.38087,-6.983454 -2.57339,-11.345763 -7.22225,-14.369721 -6.22608,-4.049907 -17.69021,-4.088655 -26.98595,-0.09121 -2.84443,1.22319 -3.58228,1.240341 -4.42719,0.102909 -0.52289,-0.703929 -0.54261,-0.883632 -0.17988,-1.639683 0.70939,-1.47861 7.29768,-3.869355 13.28352,-4.820298 4.51,-0.716484 11.41119,-0.429609 14.93233,0.620715 6.04903,1.80438 9.965,4.929663 12.44203,9.929838 2.01694,4.071378 1.95827,3.353994 2.07049,25.312948 0.094,18.38608 0.0628,19.95605 -0.40625,20.475 -0.63298,0.7003 -2.29168,0.73952 -2.85047,0.0674 -0.28756,-0.3459 -0.45628,-1.76683 -0.56104,-4.725 -0.13966,-3.94349 -0.19044,-4.23613 -0.74909,-4.31539 -0.41826,-0.0594 -0.96126,0.37857 -1.79781,1.44991 -2.63566,3.3754 -7.83129,6.75038 -12.49033,8.11347 -2.83468,0.82933 -10.49922,1.07524 -13.27837,0.42601 z m 9.28871,-3.47899 c 3.10193,-0.37147 7.36644,-1.70257 9.65542,-3.01379 3.99666,-2.28943 7.21086,-5.98555 8.53076,-9.80981 0.61853,-1.79215 0.6909,-2.54938 0.6909,-7.23122 l 0,-5.22944 -1.49818,-0.40075 c -7.5227,-2.012253 -19.53577,-2.794461 -25.12907,-1.636227 -7.32829,1.517497 -11.84728,5.563307 -12.75826,11.422327 -1.25106,8.04634 4.4067,14.50099 13.9281,15.88984 2.54912,0.37183 3.53972,0.37319 6.58033,0.009 z m -288.6776,2.23417 c -0.62074,-0.7901 -0.62102,-0.80744 -0.62102,-38.249998 0,-36.898692 0.009,-37.468411 0.59165,-38.051911 0.32541,-0.325803 0.91252,-0.673001 1.3047,-0.77155 0.39217,-0.09855 8.5869,-0.124001 18.21051,-0.05656 16.75617,0.117426 17.62393,0.150926 20.48255,0.790727 5.61172,1.255987 10.28735,3.60877 13.42602,6.755995 8.73468,8.758494 7.60384,23.874009 -2.31293,30.916176 -3.50947,2.492169 -7.08219,3.989754 -11.78649,4.940568 -2.2341,0.451551 -2.62506,0.620253 -2.70647,1.167852 -0.0684,0.460248 3.02006,4.682051 10.99395,15.028161 6.09901,7.91346 11.3203,14.74138 11.60287,15.17316 0.47775,0.73002 0.47959,0.85678 0.0263,1.80857 -0.51778,1.08711 -1.49134,1.53286 -2.69004,1.23164 -0.46595,-0.11709 -4.72453,-5.44036 -13.22836,-16.53558 l -12.54119,-16.362904 -13.36434,0.07806 -13.36435,0.07806 -0.14982,15.793714 c -0.14223,14.9941 -0.17872,15.82567 -0.72062,16.425 -0.83345,0.92177 -2.36438,0.84449 -3.1529,-0.15917 z m 35.03567,-36.406927 c 10.56067,-1.212684 17.62871,-6.555969 19.33466,-14.616555 1.66448,-7.864653 -1.57905,-15.317709 -8.17212,-18.778041 -5.78286,-3.035109 -7.62564,-3.251784 -26.74361,-3.144564 l -15.43126,0.08655 -0.0773,17.966397 c -0.056,13.020393 0.016,18.078882 0.26142,18.375 0.27701,0.334179 2.88346,0.408156 14.31,0.406143 7.68421,-0.0015 15.1174,-0.13407 16.5182,-0.294927 z m 144.54594,36.565867 c -0.55251,-0.61129 -0.57081,-1.50632 -0.57081,-27.92653 l 0,-27.294999 0.70738,-0.573477 c 0.90906,-0.73698 1.56694,-0.724509 2.54821,0.0483 l 0.7895,0.621774 0,27.381732 c 0,26.14598 -0.0247,27.40414 -0.54796,27.87822 -0.76932,0.69708 -2.23537,0.62943 -2.92632,-0.13502 z m 72.09094,0.0315 c -0.59321,-0.59393 -0.59927,-1 -0.59927,-40.133247 0,-43.936021 -0.14756,-40.866753 1.96462,-40.866753 0.63222,0 1.26379,0.232336 1.63101,0.6 0.59321,0.593929 0.59927,1 0.59927,40.133247 0,43.936023 0.14755,40.866753 -1.96462,40.866753 -0.63222,0 -1.26379,-0.23233 -1.63101,-0.6 z M 405.40241,56.527229 c -0.7058,-0.607842 -0.84154,-0.986361 -0.94671,-2.639991 -0.11136,-1.750952 -0.0478,-2.019652 0.68405,-2.890418 0.65733,-0.782145 1.02646,-0.96001 1.99234,-0.96001 1.50263,0 2.63715,1.034242 2.70003,2.461364 0.10427,2.36659 -0.0727,3.085432 -0.96349,3.913636 -1.10756,1.029753 -2.35625,1.071333 -3.46622,0.115419 z"
     style="fill:#07763c" />
  <path
     sodipodi:type="arc"
     style="fill:#9cc554;fill-opacity:1;stroke:none"
     id="globoverde"
     sodipodi:cx="125.86501"
     sodipodi:cy="130.785"
     sodipodi:rx="66.46804"
     sodipodi:ry="68.942909"
     d="m 192.33305,130.785 a 66.46804,68.942909 0 1 1 -132.936077,0 66.46804,68.942909 0 1 1 132.936077,0 z"
     transform="translate(-12.727922,-26.637825)" />
  <path
     sodipodi:nodetypes="cccccccccccccccccccccccccccccsccscccccccccccccccccccccccccccc"
     inkscape:connector-curvature="0"
     id="globoazul"
     d="m 58.464792,142.86763 c -6.53334,-9.04055 -11.547079,-23.11512 -12.636797,-34.23974 9.10827,-17.598046 20.0316,-25.978093 22.747125,-28.908122 3.687594,2.612476 12.678642,5.203318 15.705603,10.58217 2.497461,6.724695 10.900636,-1.041388 8.668405,8.490929 -8.240781,7.003453 -1.511403,19.036483 5.332159,24.012103 7.144993,6.61215 -2.241542,36.94483 8.052993,35.78814 -1.45312,-8.64734 6.75636,-14.48897 12.41508,-16.73956 4.84241,-5.34904 7.87057,-11.25357 15.05229,-13.36662 1.92559,-6.19722 7.36549,-10.45223 7.97491,-16.85062 -5.32063,-7.6073 -19.26921,-2.66661 -18.95849,-13.47631 -8.54817,-2.631554 -16.8763,-10.982428 -26.127118,-7.575916 -4.76219,4.782965 -11.187071,0.681454 -10.16539,-5.359242 -8.125533,1.204877 1.869336,-10.952392 -5.430347,-5.812623 -7.498495,8.430116 -7.95028,-12.738779 1.612442,-9.809131 4.197236,-2.163774 8.427072,0.204059 9.43915,4.240284 -1.027225,-7.229795 14.120903,-19.548708 19.184433,-18.468015 0.41713,-0.366511 -1.71312,-3.311421 -5.27539,-2.14508 2.40814,-3.288633 17.23258,-1.497019 7.03042,-6.194939 -1.78287,-2.953004 -5.11122,-1.918862 -8.21002,-3.760871 -2.02894,2.821551 -4.83274,10.059518 -6.703255,4.210713 -9.534693,-2.735268 4.360575,-5.831823 7.418715,-7.758285 3.51154,-2.936542 -10.373334,3.230857 -8.036762,-1.724508 -6.012891,0.110917 -11.789695,3.296663 -16.930308,6.190014 -6.122695,7.805404 -16.786097,13.705391 -15.489643,25.045166 -0.974747,5.683233 1.785796,6.742954 0.938032,0.462783 9.640159,13.678317 -5.4024,16.104008 -13.473239,5.009269 3.875912,-6.486922 4.989991,-11.327145 9.017671,-15.68386 10.89149,-12.955504 24.545041,-22.580594 47.036219,-23.632193 6.22797,-0.256611 -4.61596,2.022525 3.09804,1.446895 6.72327,-0.501698 8.41247,12.499951 14.18257,3.953405 4.96025,-2.071142 -10.61649,-6.202406 -1.41997,-4.505543 8.28798,1.583273 17.84171,4.158213 20.42592,7.397686 5.45257,6.835143 4.41017,9.164169 10.70093,33.271382 -0.0536,9.028819 5.74846,24.105529 17.0461,21.140533 2.91399,2.483456 5.04312,6.587266 6.71128,9.648776 -1.12165,17.8221 -6.28987,34.17338 -23.6012,49.00192 -17.24534,5.23347 -27.6202,11.48854 -37.99397,14.04402 -3.9328,-0.3502 -4.40593,0.54429 -9.97084,-1.70044 5.51432,1.40487 3.78609,-5.08097 1.79504,-3.1436 -0.66323,4.2739 -11.042093,2.61665 -14.280904,4.26209 C 80.740225,164.57172 67.937387,155.83864 58.464792,142.86763 z M 109.78082,42.921417 c 4.28447,-0.971859 1.67474,-4.867986 -2.68064,-3.997132 2.92435,1.20319 -2.52094,3.633981 2.68064,3.997132 z m -2.87853,109.338303 c 0.061,-0.31375 0.0609,0.31387 0,0 z m 60.33838,-54.419523 c 0.38344,-0.113023 0.0696,0.121881 0,0 z M 83.135438,78.275453 c 0.305206,-0.09974 0.03018,0.134042 0,0 z m -5.800802,-7.40181 c 0.523629,-0.506619 -0.360894,0.495965 0,0 z M 105.95134,53.050858 c 0.5196,-0.506318 -0.3562,0.497948 0,0 z m -7.567586,-5.408317 c 0.305221,-0.09973 0.03017,0.134037 0,0 z m 5.240566,-2.429766 c 0.10051,-0.185414 0.0311,0.300167 0,0 z M 85.863946,41.354656 c 0.510251,-0.291924 -0.172622,0.274216 0,0 z"
     style="fill:#5a7eb9" />
  <path
     sodipodi:nodetypes="cscssssscssssssssssssccsssssccssssssssscsccsscccscccsccssssscssssscsssssssssscssscccccsssssssssscccsssssssscccsssssssssscssssssssscssssscssssscsccssccccccsccccscc"
     inkscape:connector-curvature="0"
     id="setas"
     d="m 75.176202,188.19185 c -0.536128,-0.0236 -0.896448,-0.0595 -0.800711,-0.0798 0.09574,-0.0203 -0.21965,-0.0596 -0.700862,-0.0874 -5.688265,-0.32853 -12.521388,-2.25089 -18.62063,-5.2385 -8.521461,-4.17411 -16.381557,-10.67158 -23.131184,-19.12119 -2.328388,-2.91483 -4.5134,-6.03808 -6.542198,-9.35139 -4.492858,-7.33749 -7.441927,-15.19755 -8.865595,-23.62919 -0.36765,-2.1774 -0.753411,-5.64667 -0.772403,-6.94647 -0.0046,-0.31692 -0.02356,-0.41706 -0.05689,-0.30093 -0.02747,0.0957 -0.06911,-0.51895 -0.09253,-1.36597 -0.04764,-1.72304 0.0153,-4.8205 0.09249,-4.55175 0.03277,0.11408 0.05238,0.002 0.05693,-0.32522 0.02906,-2.09014 0.640415,-6.96845 1.090258,-8.69962 0.49332,-1.89851 1.704561,-5.24725 2.666147,-7.37116 2.117928,-4.677978 5.301435,-9.166521 9.393086,-13.24365 1.794348,-1.787981 4.269211,-3.834844 5.425981,-4.487624 0.694454,-0.391886 0.725402,-0.628455 0.261973,-2.002578 -0.808557,-2.397457 -1.280269,-6.505533 -0.915684,-7.974576 0.397458,-1.601502 1.430784,-2.526637 3.223299,-2.885816 2.844048,-0.569887 6.900477,0.119167 13.481808,2.290111 1.051288,0.346785 1.980843,0.630516 2.065677,0.630516 0.177046,0 5.008977,1.477091 6.840476,2.091093 12.06785,3.636301 10.945073,8.484704 9.122851,17.994349 -0.191292,0.995569 -0.477685,2.71867 -0.636431,3.829113 -0.368595,2.578373 -0.572474,3.846922 -0.87488,5.443552 -1.294956,6.83704 -3.184171,10.9744 -5.53647,12.1248 -1.198599,0.58618 -2.282164,0.52852 -3.662256,-0.19488 -1.362208,-0.71403 -2.364205,-1.64504 -3.712437,-3.44942 -1.284402,-1.71896 -1.692726,-2.04828 -2.612243,-2.10685 -0.377369,-0.024 -0.5707,8.3e-4 -0.856454,0.11009 -0.56282,0.21521 -1.597412,0.8228 -3.041049,1.7859 -0.719095,0.47974 -1.340665,0.87225 -1.381266,0.87225 -0.113563,0 -2.633428,1.92036 -3.494233,2.66291 -2.370033,2.04445 -4.766099,5.06417 -5.897127,7.43203 -1.257235,2.63208 -1.81803,5.77457 -1.651682,9.25543 0.286762,6.00052 2.080627,12.2293 5.424793,18.83634 0.985463,1.94697 1.583325,3.02171 2.943397,5.29114 3.409593,5.68929 6.493042,9.72091 10.208535,13.3477 6.067823,5.92296 10.676057,8.93145 18.756617,12.24525 0.64231,0.26341 1.488278,0.5905 1.879929,0.72688 2.16245,0.75297 7.168887,1.9003 10.285804,2.35721 3.646408,0.53453 7.352723,0.13303 9.702481,-1.05106 0.185709,-0.0936 0.351498,-0.15631 0.368424,-0.13938 0.06892,0.0689 -1.901298,1.42325 -2.938197,2.01972 -0.757834,0.43593 -2.162322,1.09768 -2.885461,1.35952 -2.253568,0.81601 -6.066936,1.56275 -8.805698,1.72434 -0.510004,0.0301 -0.780191,0.07 -0.69627,0.10277 0.08315,0.0325 -0.08213,0.0556 -0.419879,0.0587 -0.306359,0.003 -1.042664,0.0165 -1.636235,0.0304 -0.59357,0.0139 -1.517868,0.006 -2.053996,-0.0176 z m 50.034288,-1.58028 c -2.01272,-0.5412 -3.87546,-3.3859 -5.30726,-8.10502 -0.524,-1.72704 -1.12995,-4.21382 -1.66251,-6.82278 -0.0821,-0.40206 -0.17585,-0.80934 -0.2084,-0.90506 -0.37068,-1.0901 -1.77787,-7.44426 -2.15349,-9.72403 -0.83255,-5.05303 -0.58771,-7.65913 0.8801,-9.36775 1.43524,-1.67071 3.82719,-2.94418 8.72278,-4.64396 3.20865,-1.11406 3.67738,-1.28614 5.46572,-2.00644 5.88886,-2.37188 9.6813,-3.5357 12.88099,-3.95289 1.19325,-0.15558 2.95912,-0.14243 3.75986,0.028 1.83371,0.39031 2.7908,1.18875 3.29611,2.74976 0.17184,0.53086 0.16319,2.58707 -0.0141,3.35084 -0.21163,0.91174 -0.45189,1.60783 -0.95598,2.76982 -0.78386,1.80688 -0.89199,2.33448 -0.63997,3.1225 0.2465,0.77074 1.07532,1.35676 3.84929,2.72166 0.86163,0.42395 1.58338,0.79626 1.60388,0.82733 0.0953,0.1445 2.99667,1.31455 4.34923,1.75395 1.61654,0.52514 2.76704,0.77736 4.69827,1.02998 3.93696,0.51499 7.0907,0.0131 10.55335,-1.67954 3.84123,-1.87768 8.27257,-5.58871 12.01067,-10.05836 4.3928,-5.25248 9.37307,-13.99228 11.92808,-20.93241 0.70489,-1.91468 1.14041,-3.34737 1.71965,-5.65698 2.02103,-8.0584 2.27896,-13.65115 1.03577,-22.458076 -0.29447,-2.086004 -0.96932,-4.671449 -2.12281,-8.132655 -0.36131,-1.084189 -0.86381,-2.493999 -1.11666,-3.132911 -1.38312,-3.494923 -3.35621,-6.295335 -5.59869,-7.946219 -0.3255,-0.239633 -0.60654,-0.44974 -0.62451,-0.466902 -0.14314,-0.136622 1.91633,0.819647 2.71591,1.261074 1.85253,1.022728 3.1933,2.030342 4.62761,3.477733 3.60603,3.638919 6.62234,8.256482 8.75858,13.408235 1.94276,4.685161 3.37586,11.173401 3.64578,16.506001 0.0258,0.5103 0.0682,0.86732 0.0941,0.79338 0.0741,-0.21114 0.13105,2.73048 0.0853,4.40473 -0.0228,0.83283 -0.0612,1.43592 -0.0855,1.34019 -0.0243,-0.0957 -0.0664,0.28022 -0.0936,0.83545 -0.17295,3.52768 -0.92576,8.34157 -1.93137,12.35018 -2.33261,9.29843 -7.08452,19.69243 -12.35158,27.01702 -2.20463,3.06585 -4.18137,5.37977 -6.9932,8.18606 -5.15562,5.14547 -10.40513,8.91447 -16.82089,12.07695 -2.90492,1.4319 -5.77551,2.58507 -7.59972,3.05296 -1.99914,0.51276 -4.84502,1.01595 -7.16121,1.26621 -1.40471,0.15178 -5.25668,0.21307 -6.73597,0.10719 -5.71844,-0.40931 -11.85961,-1.92958 -15.81877,-3.91601 -1.05363,-0.52863 -1.13944,-0.522 -1.74125,0.13464 -1.45378,1.58623 -1.99792,2.08668 -3.58962,3.30149 -2.44941,1.86941 -3.90761,2.42356 -5.35399,2.03465 z M 155.04054,76.984955 c -1.09506,-0.117965 -2.53319,-0.730623 -3.99164,-1.700475 -1.46787,-0.976118 -2.77464,-2.074495 -5.61905,-4.722968 -1.68778,-1.571508 -1.8607,-1.724792 -3.70085,-3.280518 -5.0074,-4.233443 -7.60682,-6.857514 -9.44118,-9.530765 -1.75031,-2.550751 -2.2553,-4.634146 -1.50678,-6.216439 0.33474,-0.707603 1.14379,-1.474658 2.04632,-1.940103 1.40332,-0.723706 2.47587,-0.995146 4.63019,-1.171803 1.53021,-0.125477 2.125,-0.240431 2.55855,-0.494485 0.36028,-0.211116 0.82067,-0.774031 0.92271,-1.1282 0.1554,-0.539311 0.22158,-1.917399 0.16283,-3.390742 -0.0321,-0.804114 -0.0495,-1.759503 -0.0388,-2.123085 0.022,-0.744645 -0.13061,-2.544396 -0.33944,-4.003497 -0.37362,-2.610521 -1.18527,-5.241607 -2.36245,-7.658228 -1.7446,-3.581484 -4.70706,-6.351575 -9.20231,-8.604755 -4.19772,-2.104053 -9.01142,-3.539258 -14.43432,-4.303597 -5.71328,-0.805267 -13.64129,-0.889666 -19.530376,-0.207914 -2.366315,0.273937 -4.560151,0.69248 -7.310835,1.394772 -5.914789,1.510136 -10.081454,3.23092 -14.691296,6.067333 -2.16357,1.331234 -5.283179,3.517622 -6.579752,4.611442 -1.596226,1.346614 -4.147808,3.872856 -6.143413,6.0824 -3.05443,3.381884 -4.675441,6.385709 -5.170143,9.580572 l -0.118583,0.765823 -0.06184,-0.417721 c -0.114019,-0.770216 -0.07312,-4.082419 0.06233,-5.047469 0.534195,-3.806072 2.649622,-8.899143 5.508696,-13.262658 C 63.002977,22.750451 65.597774,19.798566 69.049,16.771518 74.399491,12.078656 80.840803,8.3623788 88.161637,5.7446046 93.840067,3.7141199 100.277,2.337074 106.85649,1.7452357 c 1.75873,-0.1582021 3.5789,-0.2789955 4.3865,-0.2911062 0.3721,-0.00558 0.48767,-0.024109 0.34813,-0.055813 -0.32991,-0.07496 3.50369,-0.1381603 5.50054,-0.090681 0.99566,0.023674 1.7163,0.061816 1.60142,0.08476 -0.11489,0.022944 0.26413,0.064219 0.84225,0.091723 3.61477,0.1719718 8.01623,0.8370578 11.8946,1.7973427 9.68116,2.3970542 18.13616,6.6584038 25.73206,12.9690657 1.92883,1.602458 3.63989,3.453374 5.60488,6.06299 3.15698,4.192644 5.27363,8.403818 6.92173,13.771081 1.11682,3.63709 1.73279,6.99218 1.8557,10.107561 0.0501,1.268933 0.0652,1.286938 1.31858,1.566499 1.47091,0.328082 3.13928,0.961328 5.06661,1.923079 1.21871,0.608144 1.94888,1.100225 2.50112,1.685564 1.20417,1.27636 1.33942,2.742053 0.43596,4.724379 -1.18312,2.595929 -4.0715,5.713892 -9.24343,9.978166 -0.67341,0.555221 -1.22609,1.037599 -1.22819,1.071951 -0.002,0.03435 -0.1836,0.225813 -0.40332,0.42547 -0.36674,0.333252 -0.391,0.373282 -0.29591,0.488284 0.0966,0.116875 0.0937,0.119109 -0.0441,0.03333 -0.13766,-0.08571 -0.25285,-2.09e-4 -1.69712,1.259384 -4.55171,3.969749 -7.39455,6.056505 -9.50845,6.979586 -0.30413,0.132808 -0.67829,0.296269 -0.83147,0.363244 -0.15318,0.06698 -0.30121,0.117205 -0.32895,0.111615 -0.0278,-0.0056 -0.24707,0.03336 -0.48739,0.08656 -0.62015,0.13727 -1.11933,0.164443 -1.7577,0.09569 z m 15.27207,-8.11289 c -0.0866,-0.110422 -0.0841,-0.112884 0.0263,-0.02629 0.11598,0.09095 0.15287,0.148121 0.0956,0.148121 -0.0144,0 -0.0693,-0.05483 -0.12185,-0.121835 z m -0.34813,-0.417726 c -0.0866,-0.110422 -0.0841,-0.112884 0.0263,-0.02628 0.11598,0.09095 0.15286,0.148121 0.0956,0.148121 -0.0144,0 -0.0693,-0.05483 -0.12184,-0.121836 z"
     style="fill:#87ac49"
     inkscape:label="#setas" />
  <path
     sodipodi:nodetypes="csssssssscscccssccsssscccccssscssssssccsssssssssccsscsssssc"
     inkscape:connector-curvature="0"
     id="basesetas"
     d="m 88.022383,181.14481 c -2.102714,-0.12643 -3.776465,-0.39393 -6.065618,-0.9694 -4.496098,-1.13027 -9.746525,-3.26198 -14.044695,-5.70222 -1.871396,-1.06247 -5.643054,-3.61589 -7.360878,-4.98333 -2.913353,-2.31912 -5.307308,-4.80135 -8.560062,-8.87571 -3.027429,-3.79212 -4.992915,-6.61225 -6.768794,-9.71203 -0.82729,-1.44402 -2.06452,-3.81707 -2.649736,-5.08227 -1.843674,-3.98593 -3.297978,-8.84565 -3.823095,-12.77532 -0.171809,-1.28572 -0.177678,-3.77879 -0.01065,-4.52532 0.233682,-1.04445 0.213061,-1.0415 0.678824,-0.0971 2.042576,4.14143 6.592132,8.18678 13.617141,12.10804 1.09417,0.61075 4.281181,2.15609 5.241456,2.59288 11.394095,13.64543 28.901429,25.9344 44.614444,28.80291 0.70667,0.12225 0.0961,0.18903 -0.76932,1.53319 -1.19328,2.13086 -2.551028,3.89124 -3.829032,4.96449 -1.445414,1.21384 -2.861036,1.93593 -4.739656,2.41765 -1.416554,0.36323 -3.048339,0.45281 -5.530326,0.30358 z m 83.552397,-26.37973 c 0,-0.0316 0.16793,-0.30285 0.37318,-0.60266 1.71343,-2.50288 2.84263,-5.92927 3.38034,-10.25713 0.25587,-2.05931 0.29403,-2.7101 0.33277,-5.67405 0.0384,-2.94011 -0.0166,-4.73848 -0.22397,-7.31382 l -0.10118,-1.25685 0.0697,-1.11024 c 7.12926,-18.4549 2.80921,-42.752591 -0.87737,-50.882485 3.02357,-0.371044 4.33837,-0.727241 8.1701,-0.295261 3.27969,0.403526 5.50118,1.425433 7.5482,3.472255 1.02466,1.024566 1.74873,2.095479 2.87572,4.253268 1.28573,2.461737 2.04275,4.509457 2.82306,7.636291 0.93527,3.74779 1.48092,7.635882 1.67561,11.939882 0.0873,1.92908 0.055,3.24492 -0.14948,6.09177 -0.40853,5.6885 -1.15249,9.07658 -3.20591,14.60015 -2.11785,5.69692 -4.10145,9.89549 -6.57137,13.90934 -2.39498,3.89203 -4.328,6.39236 -7.20535,9.32 -2.65226,2.69861 -5.03636,4.58797 -6.97513,5.5277 -0.8787,0.42591 -1.93893,0.77687 -1.93892,0.64184 z M 61.094124,59.125225 c -1.451309,-1.751064 -3.059941,-4.858452 -3.705886,-7.158649 -0.351895,-1.253084 -0.443724,-1.903274 -0.446664,-3.162553 -0.0053,-2.26725 0.483933,-4.075133 1.648479,-6.091772 0.69629,-1.205762 2.206926,-3.364489 3.069293,-4.386076 3.481255,-4.124008 9.656047,-8.87851 15.466412,-11.908918 1.177879,-0.614325 3.957088,-1.866711 5.733713,-2.583763 4.745846,-1.915441 9.401052,-2.888627 17.069129,-3.568354 2.81281,-0.249338 4.3217,-0.304598 7.19406,-0.263468 4.99838,0.07157 8.70483,0.507948 12.61482,1.485195 4.27784,1.069184 7.81673,2.479565 10.0947,4.023115 0.63543,0.430567 1.77102,1.462175 1.69416,1.53903 -0.0232,0.02317 -0.3039,0.0063 -0.62384,-0.03755 -0.82532,-0.113036 -2.86168,-0.0968 -3.89566,0.03105 -5.09979,0.630618 -10.94154,3.103972 -18.34005,7.765053 l -1.18366,0.745708 -1.20838,0.119905 c -8.762548,0.8695 -17.98291,3.795223 -25.643781,8.137054 -3.954361,2.241151 -7.026145,4.379177 -11.233808,7.818966 -2.531438,2.069465 -5.430513,4.909344 -7.545666,7.391589 -0.203927,0.23932 -0.396091,0.435127 -0.427031,0.435127 -0.03094,0 -0.179592,-0.148814 -0.33034,-0.330689 z"
     style="fill:#07763c"
     inkscape:label="basesetas" />
</svg>
